<svg version="1.0" xmlns="http://www.w3.org/2000/svg" width="933.333" height="933.333" viewBox="0 0 700 700"><path d="M365 212.5c0 1.5 10.8 21.7 17.8 33.2 10.3 17 20.1 30.7 43 60 40.1 51.5 48.8 64.6 68.2 103.7l14.9 29.8 1.4-3.3c.8-1.9 23.1-52.4 49.7-112.3 26.5-59.9 48.4-109.5 48.7-110.3.4-1.1-20.6-1.3-121.6-1.3-67.2 0-122.1.2-122.1.5zm-96.3 1.5c-16.9.4-31 .9-31.2 1.2-.5.5 12.2 26.6 63.3 130.3 12.2 24.7 35.4 71.8 51.5 104.5l29.3 59.5 60.6.3 60.6.2.6-2.7c.3-1.6.9-8 1.2-14.4 1.5-25.8-4.9-51.5-20.6-82.9-12.6-25.3-26.6-46.5-63.2-95.6-38.2-51.3-53-73.2-64.9-95.5l-3.2-5.9-26.6.2c-14.6.1-40.4.4-57.4.8zm-133 1c-17.4.4-32 1-32.3 1.3-.4.3 31.9 66.8 71.7 147.6l72.4 147 60.3.1H368l-53.5-106.3c-29.5-58.4-63.1-125.2-74.8-148.5L218.5 214l-25.5.2c-14 .1-39.8.4-57.3.8z"/></svg>