<svg xmlns="http://www.w3.org/2000/svg" width="933.333" height="933.333" version="1.0" viewBox="0 0 700 700"><path d="M364 212.3c0 1.9 14.3 27.7 22.7 41 9 14.1 18.7 27.5 42.4 57.9 39.1 50.2 48 64 69 107.6 5.6 11.7 10.6 20.9 11 20.5.5-.5 7.1-15 14.7-32.3 27.4-61.9 68.5-154.8 76.6-173 4.6-10.2 8.6-19.6 9-20.8l.7-2.2h-123c-98.5 0-123.1.3-123.1 1.3zm-89.9.8c-20.5.5-37.7.9-38.1 1.1-.4.2 32.1 67 72.3 148.5l73 148.3h122.6l.8-5.8c1.4-10.1.9-31.9-1.1-42.7-4.6-25-16.8-53.2-36.7-84.7-10-15.8-20.4-30.5-47.4-66.8-36.5-49-51.5-71.1-61.5-90.3l-4.5-8.7-21 .2c-11.5.1-37.8.5-58.4.9zm-134.5 1c-20.8.5-38 1-38.2 1.2-.2.2 32.4 66.9 72.5 148.3l72.9 147.9 61.1.3c33.6.1 61.1 0 61.1-.4 0-.5-59.9-119.5-123.1-244.9l-26.8-53-20.8-.1c-11.4-.1-37.9.3-58.7.7z"/></svg>