<svg xmlns="http://www.w3.org/2000/svg" width="1500" height="500" viewBox="0 0 396.875 132.292"><g style="display:inline"><path style="display:inline;fill:#fff;fill-opacity:1;stroke:none;stroke-width:.267269px;stroke-linecap:butt;stroke-linejoin:miter;stroke-opacity:1;opacity:.2" d="M70.94 122.782c-25.18-1.652-48.753-10.61-68.13-25.888L.268 94.889l.01-24.455.01-24.455.759 2.806c1.538 5.687 3.663 10.873 6.426 15.683C17.726 82.318 34.96 93.795 55.586 96.51c4.644.612 14.02.412 18.561-.394 13.026-2.314 23.743-6.951 45.436-19.66 14.89-8.724 22.084-12.689 31.27-17.233 26.143-12.931 49.592-20.596 72.335-23.644 8.68-1.164 11.906-1.361 22.012-1.348 11.867.015 16.579.384 35.86 2.809 19.475 2.448 25.762 3.066 35.054 3.446 23.432.957 45.51-3.703 66.462-14.028 3.822-1.883 10.809-5.854 13.564-7.709l.735-.495v37.212l-5.68.002c-21.612.009-43.326 4.245-63.676 12.423-11.047 4.44-18.97 8.61-36.186 19.049a3404.739 3404.739 0 0 1-12.084 7.296c-22.634 13.552-39.086 19.844-55.925 21.39-4.472.41-15.598.184-25.565-.522-20.888-1.479-31.704-.916-63.877 3.327-22.175 2.923-30.465 3.817-40.625 4.38-5.715.317-17.268.3-22.317-.03zm132.833-27.193c8.783-1.048 16.854-2.66 26.257-5.242 7.806-2.145 10.461-3.122 14.622-5.384 15.023-8.165 24.303-16.227 25.145-21.845.673-4.483-4.13-7.946-13.53-9.754-10.262-1.974-22.373-1.935-33.6.109-21.192 3.858-44.53 14.77-64.15 29.995l-2.226 1.727.756.8c1.158 1.224 3.47 2.934 5.834 4.314 5.268 3.076 12.718 5.115 21.515 5.888 3.192.28 15.052-.092 19.377-.608z"/><path style="display:inline;opacity:.2;mix-blend-mode:normal;fill:#fff;fill-opacity:1;stroke:none;stroke-width:.37866px;stroke-linecap:butt;stroke-linejoin:miter;stroke-opacity:1" d="M48.14 74.21c-12.155-1.198-23.246-6.212-31.885-14.416C8.081 52.032 2.494 41.57.578 30.44.133 27.854 0 23.95 0 13.512V-.056h31.81c30.09 0 31.898.038 33.452.699.903.384 4.2 1.569 7.328 2.632 21.57 7.335 44.677 11.529 63.492 11.523 11.407-.004 16.346-.8 27.672-4.458 10.872-3.513 17.566-4.647 29.377-4.978 9.637-.27 16.696.166 34.873 2.154 18.298 2 24.098 2.526 35.063 3.179 41.342 2.46 82.68-.439 123.895-8.69 4.723-.945 8.885-1.807 9.25-1.915.554-.165.663.052.663 1.311V2.91l-2.748.626c-32.182 7.327-73.243 10.895-141.484 12.296-21.682.445-33.683.913-43.97 1.716-28.172 2.198-50.276 7.616-69.369 17.004-6.807 3.348-12.773 6.885-26.913 15.961-15.595 10.01-21.89 13.566-30.539 17.25C70.07 72.78 57.685 75.15 48.141 74.21Z"/></g></svg>