<svg xmlns="http://www.w3.org/2000/svg" data-name="Layer 1" width="570" height="511.675"><path d="M565 195.675a.997.997 0 0 1-.572-.18L287.87 2.893a5.015 5.015 0 0 0-5.729.01L7.574 195.494a1 1 0 0 1-1.148-1.638L280.993 1.264a7.022 7.022 0 0 1 8.02-.013L565.57 193.854a1 1 0 0 1-.572 1.82z" fill="#3f3d56"/><path fill="#e6e6e6" d="M23.264 202.502 285.276 8.319l264 208-250.5 148.5-136-31L23.264 202.502z"/><path d="M174.256 456.541H44.816a6.047 6.047 0 1 1 0-12.095h129.44a6.047 6.047 0 1 1 0 12.095zm-83-26h-46.44a6.047 6.047 0 1 1 0-12.095h46.44a6.047 6.047 0 1 1 0 12.095z" fill="#f57e7e"/><path d="M288.96 310.66a7.564 7.564 0 0 1-2.869-.563l-161.59-67.048V33.175a7.008 7.008 0 0 1 7-7h310a7.008 7.008 0 0 1 7 7v210.02l-.305.13-156.28 66.74a7.616 7.616 0 0 1-2.956.594z" fill="#fff"/><path d="M288.96 311.159a8.072 8.072 0 0 1-3.06-.599L124 243.383V33.175a7.509 7.509 0 0 1 7.5-7.5h310a7.509 7.509 0 0 1 7.5 7.5v210.35l-156.888 67a8.11 8.11 0 0 1-3.152.634zM126 242.047l160.663 66.664a6.118 6.118 0 0 0 4.668-.028l155.67-66.478V33.175a5.507 5.507 0 0 0-5.5-5.5h-310a5.507 5.507 0 0 0-5.5 5.5z" fill="#3f3d56"/><path d="M563 193.675h-.2L448 242.695l-157.07 67.07a5.066 5.066 0 0 1-3.88.02L125 242.555l-117.62-48.8-.18-.08H7a7.008 7.008 0 0 0-7 7v304a7.008 7.008 0 0 0 7 7h556a7.008 7.008 0 0 0 7-7v-304a7.008 7.008 0 0 0-7-7zm5 311a5.002 5.002 0 0 1-5 5H7a5.002 5.002 0 0 1-5-5v-304a5.011 5.011 0 0 1 4.81-5L125 244.715l161.28 66.92a7.12 7.12 0 0 0 5.44-.03L448 244.865l115.2-49.19a5.016 5.016 0 0 1 4.8 5z" fill="#3f3d56"/><path d="M287.345 251.147a27.499 27.499 0 0 1-16.546-5.496l-.296-.222-62.31-47.708a27.683 27.683 0 1 1 33.673-43.949l40.36 30.948 95.379-124.387a27.682 27.682 0 0 1 38.813-5.124l-.593.806.608-.794a27.714 27.714 0 0 1 5.124 38.814L309.369 240.343a27.694 27.694 0 0 1-22.024 10.804z" fill="#f57e7e"/><path style="fill:#fff;stroke:none;stroke-width:.705758px;stroke-linecap:butt;stroke-linejoin:miter;stroke-opacity:1" d="M3.754 507.792c-1.406-1.407-1.413-2.177-1.235-155.368l.178-153.954 1.792-1.338 1.793-1.339 8.98 3.733 8.98 3.732L93.5 268.47l69.258 65.211 67.826 15.466c61.213 13.958 68.01 15.376 69.713 14.54 4.083-2.003 248.29-147.047 248.296-147.473.004-.25-2.374-2.279-5.285-4.509-2.912-2.23-5.294-4.256-5.294-4.502 0-.247 5.783-2.915 12.85-5.93l12.851-5.48 1.794 1.339 1.794 1.34.178 153.953c.178 153.19.171 153.961-1.235 155.368-1.409 1.408-2.249 1.413-281.246 1.413-278.997 0-279.837-.004-281.246-1.413zm174.62-52.877c2.483-2.333 2.524-6.472.089-8.908l-1.733-1.732h-66.984c-65.737 0-67.017.026-68.764 1.4-3.61 2.84-2.963 8.492 1.181 10.308 1.781.78 14.101.924 68.282.797l66.108-.154zM95.645 428.92c2.186-2.187 2.186-6.628 0-8.815-1.582-1.583-1.72-1.592-26.513-1.793-15.632-.127-25.624.065-26.804.513-1.046.398-2.396 1.796-3.042 3.15-.989 2.074-1.026 2.763-.252 4.633 1.74 4.201 2.054 4.244 29.809 4.066 25.119-.162 25.218-.168 26.802-1.754z"/><path style="fill:#fff;stroke:none;stroke-width:.705758px;stroke-linecap:butt;stroke-linejoin:miter;stroke-opacity:1" d="M17.64 197.739c-3.815-1.622-6.927-3.21-6.915-3.527.011-.317 25.364-18.355 56.339-40.084l56.317-39.508.206 6.152c.113 3.384.062 6.527-.113 6.984-.382.994-97.442 73.054-98.303 72.982-.328-.027-3.717-1.377-7.531-3zM251.535 24.79c.162-.145 7.36-5.227 15.994-11.292C277.884 6.225 283.845 2.47 285.036 2.47c1.188 0 7.269 3.81 17.743 11.116l15.937 11.116-6.114.204-6.113.204-10.389-8.144c-5.713-4.48-10.607-8.144-10.874-8.144-.268 0-5.39 3.652-11.383 8.116l-10.896 8.116h-5.853c-3.219 0-5.72-.119-5.559-.264zm240.582 146.616-42.675-33.617-.194-11.164-.194-11.165 53.832 37.461c29.607 20.604 54.896 38.256 56.197 39.226l2.365 1.765-12.926 5.556c-7.109 3.055-13.106 5.555-13.328 5.555-.221 0-19.606-15.128-43.077-33.617z"/></svg>