<svg xmlns="http://www.w3.org/2000/svg" data-name="Layer 1" width="561" height="493"><path d="M556.53 485.95c-.98 1.37-1.97 2.73-2.95 4.08A16.828 16.828 0 0 1 544 493H17a16.904 16.904 0 0 1-9.21-2.72c-.91-1.2-1.81-2.41-2.72-3.62l.91-.5 266.79-147.88a16.02 16.02 0 0 1 15.47-.02l267.39 147.19Z" fill="#f57e7e"/><path d="M544 175 312.782 41.47a64.023 64.023 0 0 0-63.982-.032L17 175a17.024 17.024 0 0 0-17 17v284a17.02 17.02 0 0 0 17 17h527a17.029 17.029 0 0 0 17-17V192a17.024 17.024 0 0 0-17-17Zm15 301a15.036 15.036 0 0 1-15 15H17a15.027 15.027 0 0 1-15-15V192a15.018 15.018 0 0 1 15-15L248.8 43.438a64.023 64.023 0 0 1 63.982.032L544 177a15.018 15.018 0 0 1 15 15Z" fill="#3f3d56"/><path d="M280.8 335.68a15.363 15.363 0 0 1-5.116-.858l-.303-.107-.061-.673c-.188.093-.379.182-.57.266l-.2.088-.202-.088c-.421-.185-.84-.395-1.243-.622L89 230.232V19A18.52 18.52 0 0 1 107.5.5h346A18.52 18.52 0 0 1 472 19v211.502l-.255.144-183.25 103.04a15.757 15.757 0 0 1-7.695 1.994Z" fill="#fff"/><path d="M280.8 336.18a15.856 15.856 0 0 1-5.282-.887l-.606-.213-.026-.286-.336.148-.403-.176a14.88 14.88 0 0 1-1.288-.645L88.5 230.525V19a19.022 19.022 0 0 1 19-19h346a19.022 19.022 0 0 1 19 19v211.795L288.74 334.122a16.253 16.253 0 0 1-7.94 2.058Zm-4.014-2.576a14.492 14.492 0 0 0 10.975-1.226L470.5 229.625V19a17.02 17.02 0 0 0-17-17h-346a17.02 17.02 0 0 0-17 17v210.354l11.99 6.734 171.35 96.29q.35.197.71.371.36-.174.71-.37l1.346-.759Z" fill="#3f3d56"/><path d="M556.57 182.38 484 223.18l-12.5 7.03-183.25 103.04a15.242 15.242 0 0 1-7.45 1.93 14.91 14.91 0 0 1-4.95-.83 12.054 12.054 0 0 1-1.3-.5q-.615-.27-1.2-.6L102 236.96l-12.5-7.02-84.92-47.72a1.011 1.011 0 0 1-.38-1.37 1 1 0 0 1 1.36-.38l83.94 47.17 12.5 7.02 172.33 96.84a13.074 13.074 0 0 0 1.78.83c.26.1.53.19.8.27a13.264 13.264 0 0 0 10.36-1.1L471.5 227.92l12.5-7.03 71.59-40.25a.998.998 0 1 1 .98 1.74Z" fill="#3f3d56"/><path d="M164.075 66h-28a8 8 0 0 1 0-16h28a8 8 0 0 1 0 16Z" fill="#f57e7e"/><path d="M197.075 93h-61a8 8 0 0 1 0-16h61a8 8 0 0 1 0 16Z" fill="#e6e6e6"/><path d="M367.5 165h-173a8 8 0 0 1 0-16h173a8 8 0 0 1 0 16Z" fill="#f57e7e"/><path d="M383.5 196h-206a8 8 0 0 1 0-16h206a8 8 0 0 1 0 16Zm0 30h-206a8 8 0 0 1 0-16h206a8 8 0 0 1 0 16Z" fill="#e6e6e6"/><path style="fill:#e6e6e6;stroke:none;stroke-width:.68px;stroke-linecap:butt;stroke-linejoin:miter;stroke-opacity:1" d="M4.86 484.133c-.76-.966-1.722-3.344-2.138-5.285-.546-2.545-.7-43.485-.55-147.008.2-138.395.253-143.57 1.475-146.03.698-1.403 1.486-2.55 1.752-2.55 1.05 0 82.046 45.798 83.001 46.932 1.043 1.238 181.194 102.71 185.803 104.655 2.936 1.239 3.176 1.79 1.016 2.332-1.149.289-244.692 134.885-265.468 146.713l-3.509 1.998zm417.08-72.525c-73.304-40.383-134.122-73.733-135.15-74.112-2.224-.82-2.399-1.62-.464-2.125 2.347-.614 186.221-104.12 186.263-104.851.03-.522 80.525-46.275 82.87-47.103.284-.1 1.112.97 1.839 2.38 1.295 2.512 1.326 5.458 1.498 146.697.155 126.424.051 144.566-.843 147.642-.56 1.928-1.405 3.819-1.876 4.2-.626.508-36.823-19.118-134.137-72.728zm50.66-230.081c0-24.915.255-45.198.566-45.074.311.125 16.123 9.225 35.138 20.223 24.4 14.112 35.688 20.276 38.367 20.951 3.553.895 7.58 3.13 6.839 3.797-.334.3-76.554 43.13-79.38 44.605l-1.53.799zM49.64 204.929c-21.131-11.872-39.305-22.106-40.386-22.742L7.29 181.03l1.625-1.243c.894-.684 3.231-1.607 5.193-2.053 2.548-.578 13.627-6.603 38.76-21.078l35.193-20.268.18 22.806c.098 12.543.098 32.821 0 45.063l-.18 22.258Z"/></svg>