<svg xmlns="http://www.w3.org/2000/svg" height="32.089" width="250"><g style="display:inline"><path d="m157.8 223.38 91.6-1.696 117.89 234.09h-94.992zm105.2-.8 91.6-1.696c40.355 79.234 133.88 152.84 117.89 234.09h-94.992z" style="fill:#00989b;fill-rule:evenodd" transform="translate(-21.384 -29.851) scale(.13551)"/><path d="m476.9 399.08 79.158-178.8h-192.51c23.764 50.348 51.597 73.547 83.8 121.99 10.519 15.823 18.494 34.186 29.552 56.817z" style="fill:#006565;fill-rule:evenodd" transform="translate(-21.384 -29.851) scale(.13551)"/></g><g style="display:inline;fill:#fff;fill-opacity:1"><g style="fill:#fff;fill-opacity:1"><path style="fill:#fff;fill-opacity:1" d="M-908.3 1187.9c0-24.281-15.347-29.778-30.465-29.778-32.985 0-43.751 38.483-43.751 64.138 0 39.17 20.387 52.914 41.461 52.914 23.364 0 45.126-19.928 52.914-42.377h-7.33c-8.017 17.867-21.761 24.968-36.192 24.968-13.057 0-24.052-5.497-26.342-29.778 30.924-3.436 49.707-18.783 49.707-40.086zm-49.936 31.153c0-22.448 7.788-49.707 23.823-49.707 7.33 0 11.453 4.81 11.453 16.264 0 17.18-13.744 30.007-35.276 33.443z" transform="translate(241.136 -215.834) scale(.19441)"/><path style="fill:#fff;fill-opacity:1" d="M-895.89 1232.8c0 31.84 13.973 42.377 32.985 42.377 33.443 0 50.165-32.069 50.165-66.887 0-39.628-21.99-49.478-38.254-49.478-9.85 0-16.722 3.665-21.761 8.934v-54.289l-22.906 3.207-.23 116.14zm62.763-19.241c0 23.823-8.704 45.813-26.113 45.813-9.392 0-13.515-6.643-13.515-20.616v-60.244c4.123-4.581 9.392-7.788 15.576-7.788 15.347 0 24.052 19.24 24.052 42.835zm81.777-8.659h-45.813v16.034h45.813zm66.05-46.8c-34.36 0-44.667 36.879-44.667 63.68 0 39.399 22.448 53.372 42.835 53.372 24.739 0 39.17-22.677 39.17-60.244 0-3.665 0-7.101-.458-10.766 10.079-5.04 15.347-17.18 17.867-27.259h-6.643c-1.603 4.581-4.352 11.453-13.057 11.453-3.894-17.409-13.515-30.236-35.047-30.236zm2.29 99.643c-10.307 0-22.218-7.101-22.218-36.879 0-22.448 6.871-50.165 25.884-50.165 6.413 0 12.14 3.207 15.805 12.14-5.04.687-8.476 4.123-8.476 10.308 0 8.705 3.894 13.744 12.37 13.744 0 1.603.228 3.207.228 4.81 0 29.091-7.559 46.042-23.594 46.042zm111.06-52.843h-45.813v16.034h45.813zm24.13-45.6v114.53h22.906v-84.296c5.268-5.498 11.911-11.453 18.783-11.453 6.643 0 7.56 5.727 12.828 5.727 3.665 0 10.537-2.75 10.537-11.911 0-7.56-4.81-13.744-15.118-13.744-13.057 0-19.929 9.62-27.03 20.387v-19.241h-22.906zm148.65 28.6c0-24.281-15.347-29.778-30.465-29.778-32.985 0-43.751 38.483-43.751 64.138 0 39.17 20.387 52.914 41.461 52.914 23.364 0 45.126-19.928 52.914-42.377h-7.33c-8.017 17.867-21.761 24.968-36.192 24.968-13.057 0-24.052-5.497-26.342-29.778 30.924-3.436 49.707-18.783 49.707-40.086zm-49.936 31.153c0-22.448 7.788-49.707 23.823-49.707 7.33 0 11.453 4.81 11.453 16.264 0 17.18-13.744 30.007-35.276 33.443z" transform="translate(241.136 -215.834) scale(.19441)"/><path style="fill:#fff;fill-opacity:1" d="M-313 1196.6c0-30.924-8.704-42.148-19.241-42.148-7.56 0-11.682 5.727-11.682 11.682 0 5.727 3.665 12.14 10.995 12.14 1.374 0 4.581-.23 5.956-1.832 1.374 6.642 2.061 15.576 2.061 24.052 0 27.03-6.872 57.266-25.655 57.266-11.224 0-13.286-10.537-13.286-20.616v-77.882h-22.906v84.524c0 20.386 15.576 31.381 31.382 31.381 31.611 0 42.377-43.98 42.377-78.568zm17.74-37.3v82.692c0 14.889 5.269 33.214 26.342 33.214 10.079 0 24.968-4.123 31.84-42.377h-8.475c-3.436 16.492-9.163 24.968-16.493 24.968-9.85 0-10.308-14.66-10.308-20.616v-77.882h-22.906zm-4.123-32.985c0 8.475 6.643 15.118 15.118 15.118 8.246 0 15.347-6.643 15.347-15.118 0-8.246-7.101-15.347-15.347-15.347-8.476 0-15.118 7.1-15.118 15.347z" transform="translate(241.136 -215.834) scale(.19441)"/><path style="fill:#fff;fill-opacity:1" d="M-174.13 1187.9c0-24.281-15.347-29.778-30.465-29.778-32.985 0-43.751 38.483-43.751 64.138 0 39.17 20.387 52.914 41.461 52.914 23.364 0 45.126-19.928 52.914-42.377h-7.33c-8.017 17.867-21.761 24.968-36.192 24.968-13.057 0-24.052-5.497-26.342-29.778 30.924-3.436 49.707-18.783 49.707-40.086zm-49.936 31.153c0-22.448 7.788-49.707 23.823-49.707 7.33 0 11.453 4.81 11.453 16.264 0 17.18-13.744 30.007-35.276 33.443z" transform="translate(241.136 -215.834) scale(.19441)"/><path style="fill:#fff;fill-opacity:1" d="M-161.72 1159.3v80.401c0 26.113 14.431 35.505 32.298 35.505 9.392 0 18.783-5.497 24.739-17.867 5.269 11.682 16.951 17.867 28.862 17.867 31.611 0 42.377-43.98 42.377-78.569 0-30.924-8.704-42.148-19.241-42.148-7.56 0-11.682 5.727-11.682 11.682 0 5.727 3.665 12.14 10.995 12.14 1.374 0 4.581-.23 5.956-1.832 1.374 6.642 2.061 15.576 2.061 24.052 0 27.03-6.872 57.266-25.655 57.266-11.224 0-13.286-10.537-13.286-20.616v-77.882h-22.906v73.53c0 15.805-9.162 24.968-17.867 24.968-8.017 0-13.744-5.727-13.744-20.616v-77.882h-22.906zm165.168-2.5c-2.291 22.448-11.224 45.126-19.241 67.803-4.582 2.52-8.247 8.704-8.247 16.722 0 14.889 7.33 33.901 34.13 33.901 13.057 0 35.505-8.017 35.505-30.694 0-24.052-4.352-33.443-19.012-92.313L3.448 1156.8zm17.867 85.212c0 11.224-6.414 16.034-16.034 16.034-10.08 0-16.264-6.185-18.554-16.951 1.832 2.29 3.894 3.207 6.184 3.207 3.665 0 7.33-3.207 7.33-8.933 0-5.04-2.29-8.247-5.04-10.08 4.582-16.491 11.454-31.61 13.287-48.561 8.475 39.857 12.828 46.5 12.828 65.283z" transform="translate(241.136 -215.834) scale(.19441)"/></g></g></svg>