<svg data-name="Layer 1" xmlns="http://www.w3.org/2000/svg" width="895.597" height="639.824"><rect x="250.162" y="150.832" width="207.972" height="302.01" rx="13.435" transform="rotate(-12.752 -304.023 917.81)" fill="#3f3d56"/><circle cx="87.597" cy="87" r="6" fill="#fff"/><circle cx="93.597" cy="109" r="6" fill="#fff"/><circle cx="132.597" cy="270" r="6" fill="#fff"/><circle cx="138.597" cy="292" r="6" fill="#fff"/><path fill="#f5f5f5" d="m134.39 143.649 121.797-27.564 4.594 20.3-121.796 27.564z"/><path fill="#f57e7e" d="m214.98 152.952 202.842-45.906 66.664 294.56-202.842 45.907z"/><path fill="#3f3d56" d="m428.887 104.542 202.842-45.906 66.664 294.56-202.842 45.907z"/><path fill="#f5f5f5" d="m258.39 176.649 121.797-27.564 4.594 20.3-121.796 27.564zm-9.197 53.651 162.395-36.753 1.148 5.075-162.395 36.752zm2.68 11.84 162.395-36.752 1.148 5.075-162.395 36.752zm2.68 11.842 162.395-36.753 1.148 5.075-162.395 36.752zm2.68 11.842 77.815-17.611 1.148 5.075-77.814 17.61zm2.68 11.841 89.656-20.291 1.148 5.075-89.655 20.29zm2.68 11.841 162.395-36.753 1.148 5.075-162.395 36.752zm2.68 11.841 162.395-36.753 1.148 5.074-162.395 36.753zm2.679 11.842 150.554-34.073 1.148 5.075-150.553 34.073zm2.681 11.841 162.395-36.753 1.148 5.074-162.395 36.753zm2.679 11.841 84.581-19.142 1.148 5.075-84.58 19.142z"/><path fill="#f57e7e" opacity=".3" d="m496.284 300.635 89.656-20.29 1.148 5.074-89.655 20.29zm2.68 11.841 162.395-36.753 1.148 5.075-162.395 36.752zm2.68 11.841 162.395-36.753 1.148 5.075-162.395 36.752zm2.68 11.842 150.554-34.073 1.148 5.075-150.553 34.072zm2.68 11.841 162.395-36.753 1.148 5.075-162.395 36.752z"/><path fill="#f5f5f5" d="m338.805 343.388 98.113-22.205 15.314 67.665-98.114 22.205z"/><path fill="#f57e7e" opacity=".3" d="m454.937 117.94 98.114-22.205 15.314 67.665-98.114 22.205zm96.03 70.736 98.114-22.205 15.314 67.665-98.114 22.205z"/><g opacity=".5" fill="#47e6b1"><path d="M185.597 510.286h3v17h-3z"/><path d="M195.598 517.287v3h-17v-3z"/></g><g opacity=".5" fill="#47e6b1"><path d="M512.597 0h3v17h-3z"/><path d="M522.597 7v3h-17V7z"/></g><g opacity=".5" fill="#47e6b1"><path d="M885.597 125h3v17h-3z"/><path d="M895.597 132v3h-17v-3z"/></g><path d="M360.29 508.592a3.675 3.675 0 0 1-2.048-4.441 1.766 1.766 0 0 0 .08-.408 1.843 1.843 0 0 0-3.31-1.22 1.766 1.766 0 0 0-.204.36 3.675 3.675 0 0 1-4.441 2.048 1.766 1.766 0 0 0-.408-.08 1.843 1.843 0 0 0-1.221 3.31 1.766 1.766 0 0 0 .362.205 3.675 3.675 0 0 1 2.047 4.44 1.766 1.766 0 0 0-.08.408 1.843 1.843 0 0 0 3.31 1.222 1.766 1.766 0 0 0 .205-.362 3.675 3.675 0 0 1 4.44-2.048 1.766 1.766 0 0 0 .408.08 1.843 1.843 0 0 0 1.221-3.31 1.766 1.766 0 0 0-.361-.204Zm146.198 124.651a3.675 3.675 0 0 1-2.048-4.441 1.766 1.766 0 0 0 .08-.408 1.843 1.843 0 0 0-3.31-1.221 1.766 1.766 0 0 0-.204.362 3.675 3.675 0 0 1-4.441 2.047 1.766 1.766 0 0 0-.408-.08 1.843 1.843 0 0 0-1.22 3.31 1.766 1.766 0 0 0 .361.205 3.675 3.675 0 0 1 2.047 4.44 1.766 1.766 0 0 0-.08.408 1.843 1.843 0 0 0 3.311 1.221 1.766 1.766 0 0 0 .204-.361 3.675 3.675 0 0 1 4.44-2.048 1.766 1.766 0 0 0 .408.08 1.843 1.843 0 0 0 1.222-3.31 1.766 1.766 0 0 0-.362-.204ZM12.29 211.305a3.675 3.675 0 0 1-2.048-4.44 1.766 1.766 0 0 0 .08-.408 1.843 1.843 0 0 0-3.31-1.221 1.766 1.766 0 0 0-.204.362 3.675 3.675 0 0 1-4.441 2.047 1.766 1.766 0 0 0-.408-.08 1.843 1.843 0 0 0-1.221 3.31 1.767 1.767 0 0 0 .362.204 3.675 3.675 0 0 1 2.047 4.441 1.766 1.766 0 0 0-.08.408 1.843 1.843 0 0 0 3.31 1.221 1.766 1.766 0 0 0 .205-.362 3.675 3.675 0 0 1 4.44-2.047 1.766 1.766 0 0 0 .408.08 1.843 1.843 0 0 0 1.221-3.31 1.766 1.766 0 0 0-.361-.205Zm865.198 151.938a3.675 3.675 0 0 1-2.048-4.441 1.766 1.766 0 0 0 .08-.408 1.843 1.843 0 0 0-3.31-1.221 1.766 1.766 0 0 0-.204.362 3.675 3.675 0 0 1-4.441 2.047 1.766 1.766 0 0 0-.408-.08 1.843 1.843 0 0 0-1.22 3.31 1.766 1.766 0 0 0 .361.205 3.675 3.675 0 0 1 2.047 4.44 1.766 1.766 0 0 0-.08.408 1.843 1.843 0 0 0 3.311 1.221 1.766 1.766 0 0 0 .204-.361 3.675 3.675 0 0 1 4.44-2.048 1.766 1.766 0 0 0 .408.08 1.843 1.843 0 0 0 1.222-3.31 1.766 1.766 0 0 0-.362-.204Z" fill="#4d8af0" opacity=".5"/><circle cx="107.597" cy="455.286" r="6" fill="#f55f44" opacity=".5"/><circle cx="321.597" cy="6" r="6" fill="#4d8af0" opacity=".5"/><circle cx="463.796" cy="457.937" r="6" fill="#47e6b1" opacity=".5"/><circle cx="809.796" cy="607.937" r="6" fill="#f55f44" opacity=".5"/><rect x="688.162" y="277.832" width="207.972" height="302.01" rx="13.435" transform="rotate(-12.752 133.977 1044.81)" fill="#f57e7e"/><circle cx="525.597" cy="214" r="6" fill="#fff"/><circle cx="531.597" cy="236" r="6" fill="#fff"/><circle cx="570.597" cy="397" r="6" fill="#fff"/><circle cx="576.597" cy="419" r="6" fill="#fff"/><path fill="#f5f5f5" d="m572.39 270.649 121.797-27.565 4.594 20.3-121.796 27.565z"/></svg>