<?xml version="1.0" encoding="UTF-8" standalone="no"?>
<!-- Generated by IcoMoon.io -->
<svg id="svg2" xmlns:rdf="http://www.w3.org/1999/02/22-rdf-syntax-ns#" xmlns="http://www.w3.org/2000/svg" height="55.94" width="39" version="1.1" xmlns:cc="http://creativecommons.org/ns#" xmlns:dc="http://purl.org/dc/elements/1.1/" viewBox="0 0 39 55.939751">
 <metadata id="metadata10">
  <rdf:RDF>
   <cc:Work rdf:about="">
    <dc:format>image/svg+xml</dc:format>
    <dc:type rdf:resource="http://purl.org/dc/dcmitype/StillImage"/>
    <dc:title/>
   </cc:Work>
  </rdf:RDF>
 </metadata>
 <defs id="defs8">
  <filter id="filter4227" style="color-interpolation-filters:sRGB">
   <feFlood id="feFlood4229" result="flood" flood-opacity=".49804" flood-color="rgb(0,0,0)"/>
   <feComposite id="feComposite4231" operator="in" result="composite1" in2="SourceGraphic" in="flood"/>
   <feGaussianBlur id="feGaussianBlur4233" stdDeviation="2.7" result="blur" in="composite1"/>
   <feOffset id="feOffset4235" result="offset" dx="4.57967e-15" dy="1.5"/>
   <feComposite id="feComposite4237" operator="over" result="composite2" in2="offset" in="SourceGraphic"/>
  </filter>
 </defs>
 <g id="layer2" transform="translate(39.031 13.752)">
  <g id="g4240">
   <path id="path4" fill="#ccc" d="m-19.531 23.188c-1.38 0-2.5 1.12-2.5 2.5v9.5c0 1.1-0.9 2-2 2s-2-0.9-2-2l-3.4102-11.939c-3.64 1.02-6.1793 2.7893-8.2793 5.5293-0.83 1.08-1.2805 3.2502-1.3105 4.4102v5c0 2.21 1.79 4 4 4h31c2.21 0 4-1.79 4-4v-5c-0.03-1.16-0.47955-3.3302-1.3105-4.4102-2.1-2.74-4.6403-4.5203-8.2793-5.5293l-3.4102 11.94c0 1.1-0.9 2-2 2s-2-0.9-2-2v-9.5c0-1.38-1.12-2.5-2.5-2.5z"/>
   <g id="g4223" filter="url(#filter4227)">
    <rect id="rect4221" height="34.547" width="32.388" y="-10.298" x="-35.709" fill="none"/>
    <path id="path4141" d="m-21.908 18.706c-3.4678-1.1824-6.1482-4.658-7.4966-9.7206-0.48271-1.8124-0.60603-5.2241-0.24133-6.6765 0.92146-3.6697 3.967-6.7933 7.5166-7.709 1.2951-0.33414 3.8367-0.34043 5.1314-0.012712 4.5486 1.1514 7.8693 5.4558 7.8791 10.213 0.00535 2.6029-0.7984 5.6514-2.2114 8.3875-0.68709 1.3305-1.1386 1.946-2.2695 3.0939-1.4685 1.4905-2.5351 2.1658-4.0692 2.5762-1.2665 0.33882-2.9801 0.27742-4.2391-0.15188z" fill="#00989b"/>
   </g>
  </g>
 </g>
</svg>
