<?xml version="1.0" encoding="UTF-8" standalone="no"?>
<!-- Generated by IcoMoon.io -->
<svg id="svg2" xmlns:rdf="http://www.w3.org/1999/02/22-rdf-syntax-ns#" xmlns="http://www.w3.org/2000/svg" height="82.422" width="77.73" version="1.1" xmlns:cc="http://creativecommons.org/ns#" xmlns:dc="http://purl.org/dc/elements/1.1/" viewBox="0 0 77.730103 82.421844">
 <metadata id="metadata10">
  <rdf:RDF>
   <cc:Work rdf:about="">
    <dc:format>image/svg+xml</dc:format>
    <dc:type rdf:resource="http://purl.org/dc/dcmitype/StillImage"/>
    <dc:title/>
   </cc:Work>
  </rdf:RDF>
 </metadata>
 <defs id="defs8">
  <filter id="filter4647" style="color-interpolation-filters:sRGB">
   <feFlood id="feFlood4649" result="flood" flood-opacity=".49804" flood-color="rgb(0,0,0)"/>
   <feComposite id="feComposite4651" operator="in" result="composite1" in2="SourceGraphic" in="flood"/>
   <feGaussianBlur id="feGaussianBlur4653" stdDeviation="2.7" result="blur" in="composite1"/>
   <feOffset id="feOffset4655" result="offset" dx="4.57967e-15" dy="1.4"/>
   <feComposite id="feComposite4657" operator="over" result="composite2" in2="offset" in="SourceGraphic"/>
  </filter>
 </defs>
 <g id="layer3" transform="translate(69.758 -12.749)">
  <g id="g4667">
   <g>
    <path id="path4" d="m-46.602 42.61c-0.22317 0.0238-0.4467 0.05725-0.66992 0.08008 0.27196-0.01996 0.49026-0.03355 0.66992-0.08008zm-1.918 4.6074v29.953c0.000666 0.84333 0.28175 1.5448 0.84375 2.1074 0.562 0.56267 1.2654 0.84375 2.1094 0.84375h3.0938v10.549c0 1.3113 0.44527 2.3878 1.3359 3.2324 0.89067 0.84466 1.9454 1.2682 3.1641 1.2676 1.2187-0.00066 2.2734-0.42423 3.1641-1.2676 0.89067-0.84334 1.3359-1.9198 1.3359-3.2324v-10.549h5.9062v10.549c0 1.3113 0.44527 2.3878 1.3359 3.2324 0.89067 0.84466 1.9454 1.2682 3.1641 1.2676 1.2187-0.00066 2.2734-0.42423 3.1641-1.2676 0.89067-0.84334 1.3359-1.9198 1.3359-3.2324v-10.549h3.0938c0.84333-0.000667 1.5467-0.28175 2.1094-0.84375 0.56267-0.562 0.84375-1.2634 0.84375-2.1074v-29.953h-36zm-2.9531 14.32c-0.01207 0.10786-0.02932 0.217-0.01953 0.26953 0.0076 0.04064 0.01196 0.07883 0.01953 0.11914v-0.38867z" fill="#ccc"/>
    <path id="path4140" d="m-6.6768 77.04c-0.90811-0.37311-1.7925-1.1941-2.2479-2.0866-0.46968-0.92065-0.49263-1.5012-0.49263-12.46 0-12.636-0.01469-12.504 1.5358-13.809 2.145-1.8049 5.2139-1.2253 6.6155 1.2493 0.55842 0.98594 0.56026 1.0269 0.56435 12.522 0.0039 11.001-0.01859 11.577-0.48853 12.498-0.74144 1.4533-1.8124 2.0993-3.6075 2.1759-0.82798 0.03534-1.6736-0.0048-1.8791-0.08929z" fill="#00989b"/>
    <path id="path4142" d="m-58.267 76.64c-0.46233-0.31156-1.0955-0.94475-1.4071-1.4071l-0.56648-0.8406v-11.809c0-12.819-0.03721-12.455 1.4103-13.824 1.9472-1.8423 4.9904-1.4371 6.5162 0.86773l0.66868 1.0101 0.07674 10.981c0.04221 6.0393 0.0066 11.462-0.07912 12.05-0.17145 1.1763-1.2234 2.5759-2.389 3.1787-1.1018 0.56977-3.2334 0.46621-4.2302-0.20551z" fill="#00989b"/>
   </g>
   <g id="g4401" filter="url(#filter4647)" transform="translate(-77.73 -6.2284)">
    <path id="path4144" d="m29.515 48.494c0.16862-2.5124 0.86072-4.7777 2.1056-6.892 0.93121-1.5815 2.9985-3.9113 4.4134-4.9737l0.73205-0.5497-2.2891-2.2987c-1.259-1.2643-2.2891-2.4846-2.2891-2.7119 0-0.42144 1.1085-1.4459 1.5645-1.4459 0.13841 0 1.4027 1.1327 2.8096 2.5172l2.558 2.5172 1.5902-0.63618c2.3797-0.95204 3.7991-1.2157 6.5503-1.2168 2.7104-0.0011 3.9012 0.22953 6.3043 1.221l1.5708 0.64806 2.5661-2.5252c1.4114-1.3889 2.731-2.5252 2.9325-2.5252 0.49195 0 1.4498 1.0467 1.4498 1.5843 0 0.23711-1.0255 1.4911-2.2788 2.7867-1.2534 1.2956-2.1693 2.3556-2.0355 2.3556 0.54574 0 3.3789 2.8857 4.5452 4.6295 1.4573 2.1789 2.4493 5.0452 2.6766 7.734l0.1553 1.8372h-17.885-17.885l0.13795-2.0554zm11.642-5.294v-1.6194h-1.4948-1.4948v1.6194 1.6194h1.4948 1.4948v-1.6194zm15.197 0v-1.6194h-1.6194-1.6194v1.6194 1.6194h1.6194 1.6194v-1.6194z" fill="#00989b"/>
    <rect id="rect4397" height="35.626" width="64.775" y="22.671" x="14.45" fill="none"/>
    <text id="text4146" style="word-spacing:0px;letter-spacing:0px" xml:space="preserve" font-size="5px" line-height="125%" y="59.543255" x="36.373703" font-family="Sans" fill="#666666"><tspan id="tspan4148" x="36.373703" y="59.543255">NExtGen</tspan></text>
   </g>
  </g>
 </g>
</svg>
