<?xml version="1.0" encoding="UTF-8" standalone="no"?>
<!-- Generated by IcoMoon.io -->
<svg id="svg2" xmlns:rdf="http://www.w3.org/1999/02/22-rdf-syntax-ns#" xmlns="http://www.w3.org/2000/svg" height="197.59" width="230.41" version="1.1" xmlns:cc="http://creativecommons.org/ns#" xmlns:dc="http://purl.org/dc/elements/1.1/" viewBox="0 0 230.41144 197.59318">
 <metadata id="metadata14">
  <rdf:RDF>
   <cc:Work rdf:about="">
    <dc:format>image/svg+xml</dc:format>
    <dc:type rdf:resource="http://purl.org/dc/dcmitype/StillImage"/>
    <dc:title/>
   </cc:Work>
  </rdf:RDF>
 </metadata>
 <defs id="defs12">
  <filter id="filter4504" style="color-interpolation-filters:sRGB">
   <feFlood id="feFlood4506" result="flood" flood-opacity=".49804" flood-color="rgb(0,0,0)"/>
   <feComposite id="feComposite4508" operator="in" result="composite1" in2="SourceGraphic" in="flood"/>
   <feGaussianBlur id="feGaussianBlur4510" stdDeviation="0.6" result="blur" in="composite1"/>
   <feOffset id="feOffset4512" result="offset" dx="1.97065e-15" dy="0.9"/>
   <feComposite id="feComposite4514" operator="over" result="composite2" in2="offset" in="SourceGraphic"/>
  </filter>
 </defs>
 <g id="layer3" transform="translate(432.93 344.14)">
  <g id="g4152">
   <path id="path4" d="m-222.99-319.44h-12.35v-12.35c0-6.7923-5.5573-12.35-12.35-12.35h-172.89c-6.7923 0-12.35 5.5573-12.35 12.35v148.19c0 6.7923 5.5573 12.35 12.35 12.35h12.35v12.35c0 6.7923 5.5573 12.35 12.35 12.35h172.89c6.7923 0 12.35-5.5573 12.35-12.35v-148.19c0-6.7923-5.5573-12.35-12.35-12.35zm-185.24 12.35v123.5h-12.325c-0.006-0.006-0.0185-0.0123-0.0247-0.0247v-148.15c0.006-0.006 0.0124-0.0186 0.0247-0.0247h172.85c0.006 0.006 0.0185 0.0124 0.0247 0.0247v12.325h-148.19c-6.7923 0-12.35 5.5573-12.35 12.35zm185.24 148.17c-0.006 0.006-0.0123 0.0185-0.0247 0.0247h-172.85c-0.006-0.006-0.0185-0.0123-0.0247-0.0247v-148.15c0.006-0.006 0.0124-0.0185 0.0247-0.0247h172.85c0.006 0.006 0.0185 0.0124 0.0247 0.0247v148.15z" fill="#ccc"/>
   <path id="path8" d="m-235.34-171.24h-148.19v-24.699l43.224-74.097 49.398 61.748h12.35l43.224-37.049z" fill="#00989b"/>
   <g id="g4428" filter="url(#filter4504)" transform="matrix(6.1748 0 0 6.1748 -185.42 -312.69)">
    <rect id="rect4426" height="17.052" width="16.609" y="-1.5502" x="-21.038" fill="none"/>
    <path id="path6" fill="#00989b" d="m-10.083 5.9066c0 1.657-1.343 3-3 3s-3-1.343-3-3 1.343-3 3-3 3 1.343 3 3z"/>
   </g>
  </g>
 </g>
</svg>
