<?xml version="1.0" encoding="UTF-8" standalone="no"?>
<!-- Generated by IcoMoon.io -->
<svg id="svg2" xmlns:rdf="http://www.w3.org/1999/02/22-rdf-syntax-ns#" xmlns="http://www.w3.org/2000/svg" height="48" width="47.141" version="1.1" xmlns:cc="http://creativecommons.org/ns#" xmlns:dc="http://purl.org/dc/elements/1.1/" viewBox="0 0 47.141499 48">
 <metadata id="metadata10">
  <rdf:RDF>
   <cc:Work rdf:about="">
    <dc:format>image/svg+xml</dc:format>
    <dc:type rdf:resource="http://purl.org/dc/dcmitype/StillImage"/>
    <dc:title/>
   </cc:Work>
  </rdf:RDF>
 </metadata>
 <defs id="defs8">
  <filter id="filter4911" style="color-interpolation-filters:sRGB">
   <feFlood id="feFlood4913" result="flood" flood-opacity=".49804" flood-color="rgb(0,0,0)"/>
   <feComposite id="feComposite4915" operator="in" result="composite1" in2="SourceGraphic" in="flood"/>
   <feGaussianBlur id="feGaussianBlur4917" stdDeviation="1.5" result="blur" in="composite1"/>
   <feOffset id="feOffset4919" result="offset" dx="4.57967e-15" dy="1.3"/>
   <feComposite id="feComposite4921" operator="over" result="composite2" in2="offset" in="SourceGraphic"/>
  </filter>
 </defs>
 <g id="layer5" transform="translate(36.877 5.6367)">
  <g id="g5016">
   <g>
    <path id="path4" d="m-32.377-5.6367c-2.475 0-4.5 2.025-4.5 4.5v39c0 2.475 2.025 4.5 4.5 4.5h36c2.475 0 4.5-2.025 4.5-4.5v-39c0-2.475-2.025-4.5-4.5-4.5h-36zm1.5 6h33v36h-33v-36zm16.908 4.5918c0.02137 0.058499 0.03763 0.12 0.06445 0.17578 0.02096 0.043598-0.0131-0.066651-0.03516-0.14062-0.0098-0.011718-0.01938-0.02354-0.0293-0.035156zm-7.4199 9.8164c0.11709 0.01561 0.23488 0.01469 0.3457 0.0059-0.09499-0.0035-0.14736-0.0051-0.3457-0.0059zm-3.2734 1.7363c0.0045 0.01107 0.0087 0.02233 0.01367 0.0332 0.000759 0.0017 0.0028 0.0018 0.0039 0.0039-0.0013-0.0065-0.0026-0.0094-0.0039-0.01563-0.0068-0.0115-0.0079-0.01196-0.01367-0.02148zm-0.03125 0.02539c-0.05818-0.1423 0.07229 0.25222 0.10156 0.30274 0.000594-0.01134 0.0012-0.01823 0.002-0.0293-0.0064-0.03284-0.0038-0.02044-0.0098-0.05078-0.03957-0.09502-0.0422-0.09657-0.09375-0.22266zm11.395 4.9609c-0.03421 0.0617-0.05664 0.09538-0.07813 0.14648-0.0039 0.0093-0.003 0.01534-0.0078 0.0293 0.02149-0.04092 0.03916-0.07727 0.07617-0.15234 0.0022-0.0062 0.0079-0.01781 0.0098-0.02344zm-3.6602 0.59375c-0.01282 0.0013-0.03111 0.01613-0.04492 0.01953 0.03906 0.000757 0.07814-0.0015 0.11719 0-0.02383-0.0063-0.04409-0.02238-0.07227-0.01953zm-0.68945 0.08398c-0.01294 0.0072-0.01085 0.0055-0.02539 0.01367 0.0087 0.0032 0.0051-0.002 0.01172 0h0.002c0.006-0.0061 0.0054-0.0073 0.01172-0.01367zm6.4492 1.1309c-0.02418 0.02362-0.08533 0.072-0.08398 0.07617 0.0019 0.0058 0.01936-0.0156 0.01758-0.0098-0.0057 0.019-0.01608 0.03703-0.02539 0.05469 0.0052-0.0046 0.01044-0.0091 0.01563-0.01367 0.03766-0.05734 0.04841-0.06458 0.07617-0.10742zm1.0332 0.05273c-0.0089 0.02496-0.01794 0.04879-0.02539 0.07422-0.0052 0.01767 0.01768-0.03276 0.02148-0.05078 0.0016-0.0078 0.0018-0.01322 0.0039-0.02344zm-13.207 0.3418c-0.000857-0.0086-0.007 0.02284-0.0098 0.0293-0.000468 0.01562-0.0013 0.03126-0.002 0.04688 0.0026 0.01046 0.0052 0.02079 0.0078 0.03125 0.0026-0.04534 0.0055-0.09144 0.0039-0.10742zm12.121 4.2539c0.0037 0.02608 0.0089 0.09442 0.0059 0.05469 0.08504 0.29393 0.07499 0.26146 0.04687 0.16016-0.01974-0.07137-0.03439-0.14039-0.05273-0.21484zm-10.453 0.1582c0.0127 0.13476 0.01148 0.13654 0.01758 0.19141 0.000847-0.000952 0.0011-0.0028 0.002-0.0039 0.000017-0.002-0.000012-0.0039 0-0.0059 0.00037-0.0605-0.02387-0.23203-0.01953-0.18164zm14.605 0.46094c-0.014859 0.0075-0.02826 0.01761-0.042969 0.02539 0.00195 0.0012 0.0039 0.0046 0.00586 0.0059 0.00547-0.0033 0.033456-0.01718 0.037109-0.01953 0.0000804-0.0039-0.0000847-0.0078 0-0.01172zm-0.037109 0.03125c-0.00354 0.0021-0.019096 0.0111-0.023437 0.01367 0.0093-0.0034 0.01805-0.0083 0.027344-0.01172-0.0009895-0.000665-0.00292-0.0013-0.00391-0.002zm-0.023437 0.01367c-0.015091 0.0056-0.029823 0.01201-0.044922 0.01758-0.064942 0.03627-0.1297 0.07268-0.19336 0.11133 0.00387-0.000845 0.00785-0.0011 0.011719-0.002 0.12928-0.0709 0.185-0.10236 0.22656-0.12695zm-0.044922 0.01758c0.021156-0.01182 0.041079-0.02578 0.0625-0.03711-0.0013-0.000771-0.00261-0.0032-0.00391-0.0039-0.056064 0.02892-0.11114 0.05735-0.14258 0.07422 0.028206-0.01056 0.055718-0.02279 0.083984-0.0332zm-0.089844-0.01758c-0.046342 0.02856-0.091148 0.06042-0.13477 0.10547 0.012414-0.0051 0.024639-0.01067 0.037109-0.01563 0.029317-0.02696 0.045328-0.0421 0.097656-0.08984z" fill="#ccc"/>
    <path id="path4380" d="m-24.872 22.869v-1.468h10.482 10.482v1.468 1.468h-10.482-10.482v-1.468z" fill="#00989b"/>
    <path id="path4382" d="m-24.872 28.859v-1.468h10.482 10.482v1.468 1.468h-10.482-10.482v-1.468z" fill="#00989b"/>
   </g>
   <g id="g4428" filter="url(#filter4911)">
    <rect id="rect4426" height="29.185" width="39.226" y="-1.9721" x="-32.884" fill="none"/>
    <path id="path4384" d="m-24.872 16.824c0-0.90464 0.02683-1.6503 0.06602-1.8351 0.23022-1.085 1.2831-1.9744 2.8508-2.4079 0.41648-0.11519 0.65022-0.13026 2.4856-0.16026 1.2078-0.01974 1.931-0.05135 1.791-0.07828-0.12919-0.02484-0.43307-0.0838-0.6753-0.13102-0.54222-0.1057-1.3691-0.5053-1.8483-0.89321-0.69519-0.56274-1.2759-1.4701-1.5035-2.349-0.14793-0.57137-0.16207-1.5214-0.03104-2.0846 0.35314-1.5179 1.4576-2.7515 2.9039-3.2434 1.7165-0.58384 3.4867-0.12719 4.7498 1.2253 0.45876 0.49124 0.87979 1.2554 1.038 1.8839 0.48308 1.9189-0.37386 3.9633-2.0867 4.9782-0.43456 0.25748-1.1738 0.5078-1.6367 0.55424-0.82415 0.08268-0.3517 0.13081 1.3001 0.13245 1.9471 0.0019 2.3756 0.04688 3.1833 0.3339 1.1755 0.41771 2.038 1.1966 2.2938 2.0714 0.075147 0.25698 0.093265 0.6306 0.093265 1.9231v1.6042h-7.487-7.487v-1.5239z" fill="#00989b"/>
   </g>
  </g>
 </g>
</svg>
