<?xml version="1.0" encoding="UTF-8" standalone="no"?>
<!-- Created with Inkscape (http://www.inkscape.org/) -->
<svg id="svg2" xmlns:rdf="http://www.w3.org/1999/02/22-rdf-syntax-ns#" xmlns="http://www.w3.org/2000/svg" height="656.25" width="1725" version="1.1" xmlns:cc="http://creativecommons.org/ns#" xmlns:dc="http://purl.org/dc/elements/1.1/" viewBox="0 0 1725 656.25001">
 <metadata id="metadata7">
  <rdf:RDF>
   <cc:Work rdf:about="">
    <dc:format>image/svg+xml</dc:format>
    <dc:type rdf:resource="http://purl.org/dc/dcmitype/StillImage"/>
    <dc:title/>
   </cc:Work>
  </rdf:RDF>
 </metadata>
 <g id="layer2" transform="translate(1617.9 -819.42)">
  <g id="g4174">
   <rect id="rect4512" fill-rule="evenodd" height="656.25" width="1725" y="819.42" x="-1617.9" fill="#212121"/>
   <circle id="path4136" cy="1148.3" cx="-1265.4" r="274.29" fill="#ccc"/>
   <g fill-rule="evenodd">
    <path id="path4160" d="m-1460.1 1042.8 91.6-1.6963 117.89 234.09h-94.992z" fill="#00989b"/>
    <path id="path4162" d="m-1354.9 1042 91.6-1.6963c40.355 79.234 133.88 152.84 117.89 234.09h-23.748-23.748-23.748-23.748z" fill="#00989b"/>
    <path id="path4394" d="m-1141 1218.5 79.158-178.8h-192.51c23.764 50.348 51.597 73.547 83.8 121.99 10.519 15.823 18.494 34.186 29.552 56.817z" fill="#006565"/>
   </g>
   <g id="text4401" fill="#fff">
    <path id="path4145" d="m-908.3 1187.9c0-24.281-15.347-29.778-30.465-29.778-32.985 0-43.751 38.483-43.751 64.138 0 39.17 20.387 52.914 41.461 52.914 23.364 0 45.126-19.928 52.914-42.377h-7.33c-8.0172 17.867-21.761 24.968-36.192 24.968-13.057 0-24.052-5.4975-26.342-29.778 30.924-3.4359 49.707-18.783 49.707-40.086zm-49.936 31.153c0-22.448 7.7882-49.707 23.823-49.707 7.33 0 11.453 4.8103 11.453 16.264 0 17.18-13.744 30.007-35.276 33.443z"/>
    <path id="path4147" d="m-895.89 1232.8c0 31.84 13.973 42.377 32.985 42.377 33.443 0 50.165-32.069 50.165-66.887 0-39.628-21.99-49.478-38.254-49.478-9.8497 0-16.722 3.665-21.761 8.9335v-54.288l-22.906 3.2069-0.22906 116.14zm62.763-19.241c0 23.823-8.7044 45.813-26.113 45.813-9.3916 0-13.515-6.6428-13.515-20.616v-60.244c4.1232-4.5813 9.3916-7.7882 15.576-7.7882 15.347 0 24.052 19.241 24.052 42.835z"/>
    <path id="path4149" d="m-751.35 1204.9h-45.813v16.034h45.813v-16.034z"/>
    <path id="path4151" d="m-685.3 1158.1c-34.36 0-44.667 36.879-44.667 63.68 0 39.399 22.448 53.372 42.835 53.372 24.739 0 39.17-22.677 39.17-60.244 0-3.665 0-7.101-0.45813-10.766 10.079-5.0394 15.347-17.18 17.867-27.259h-6.6428c-1.6034 4.5813-4.3522 11.453-13.057 11.453-3.8941-17.409-13.515-30.236-35.047-30.236zm2.2906 99.643c-10.308 0-22.219-7.101-22.219-36.879 0-22.448 6.8719-50.165 25.884-50.165 6.4138 0 12.14 3.2069 15.805 12.14-5.0394 0.6872-8.4754 4.1231-8.4754 10.308 0 8.7045 3.8941 13.744 12.369 13.744 0 1.6034 0.22906 3.2068 0.22906 4.8103 0 29.091-7.5591 46.042-23.594 46.042z"/>
    <path id="path4153" d="m-571.95 1204.9h-45.813v16.034h45.813v-16.034z"/>
    <path id="path4155" d="m-547.82 1159.3v114.53h22.906v-84.296c5.2685-5.4975 11.911-11.453 18.783-11.453 6.6428 0 7.5591 5.7266 12.828 5.7266 3.665 0 10.537-2.7487 10.537-11.911 0-7.5591-4.8103-13.744-15.118-13.744-13.057 0-19.929 9.6207-27.03 20.387v-19.241h-22.906z"/>
    <path id="path4157" d="m-399.17 1187.9c0-24.281-15.347-29.778-30.465-29.778-32.985 0-43.751 38.483-43.751 64.138 0 39.17 20.387 52.914 41.461 52.914 23.364 0 45.126-19.928 52.914-42.377h-7.33c-8.0172 17.867-21.761 24.968-36.192 24.968-13.057 0-24.052-5.4975-26.342-29.778 30.924-3.4359 49.707-18.783 49.707-40.086zm-49.936 31.153c0-22.448 7.7882-49.707 23.823-49.707 7.33 0 11.453 4.8103 11.453 16.264 0 17.18-13.744 30.007-35.276 33.443z"/>
    <path id="path4159" d="m-313 1196.6c0-30.924-8.7044-42.148-19.241-42.148-7.5591 0-11.682 5.7266-11.682 11.682 0 5.7266 3.665 12.14 10.995 12.14 1.3744 0 4.5813-0.2291 5.9556-1.8325 1.3744 6.6428 2.0616 15.576 2.0616 24.052 0 27.03-6.8719 57.266-25.655 57.266-11.224 0-13.286-10.537-13.286-20.616v-77.882h-22.906v84.524c0 20.387 15.576 31.382 31.382 31.382 31.611 0 42.377-43.98 42.377-78.569z"/>
    <path id="path4161" d="m-295.26 1159.3v82.692c0 14.889 5.2685 33.214 26.342 33.214 10.079 0 24.968-4.1231 31.84-42.377h-8.4754c-3.436 16.492-9.1626 24.968-16.493 24.968-9.8497 0-10.308-14.66-10.308-20.616v-77.882h-22.906zm-4.1232-32.985c0 8.4754 6.6428 15.118 15.118 15.118 8.2463 0 15.347-6.6428 15.347-15.118 0-8.2463-7.101-15.347-15.347-15.347-8.4754 0-15.118 7.1009-15.118 15.347z"/>
    <path id="path4163" d="m-174.13 1187.9c0-24.281-15.347-29.778-30.465-29.778-32.985 0-43.751 38.483-43.751 64.138 0 39.17 20.387 52.914 41.461 52.914 23.364 0 45.126-19.928 52.914-42.377h-7.33c-8.0172 17.867-21.761 24.968-36.192 24.968-13.057 0-24.052-5.4975-26.342-29.778 30.924-3.4359 49.707-18.783 49.707-40.086zm-49.936 31.153c0-22.448 7.7882-49.707 23.823-49.707 7.33 0 11.453 4.8103 11.453 16.264 0 17.18-13.744 30.007-35.276 33.443z"/>
    <path id="path4165" d="m-161.72 1159.3v80.401c0 26.113 14.431 35.505 32.298 35.505 9.3916 0 18.783-5.4975 24.739-17.867 5.2685 11.682 16.951 17.867 28.862 17.867 31.611 0 42.377-43.98 42.377-78.569 0-30.924-8.7044-42.148-19.241-42.148-7.5591 0-11.682 5.7266-11.682 11.682 0 5.7266 3.665 12.14 10.995 12.14 1.3744 0 4.5813-0.2291 5.9557-1.8325 1.3744 6.6428 2.0616 15.576 2.0616 24.052 0 27.03-6.8719 57.266-25.655 57.266-11.224 0-13.286-10.537-13.286-20.616v-77.882h-22.906v73.53c0 15.805-9.1626 24.968-17.867 24.968-8.0172 0-13.744-5.7266-13.744-20.616v-77.882h-22.906z"/>
    <path id="path4167" d="m3.4476 1156.8c-2.2906 22.448-11.224 45.126-19.241 67.803-4.5813 2.5197-8.2463 8.7044-8.2463 16.722 0 14.889 7.33 33.901 34.13 33.901 13.057 0 35.505-8.0172 35.505-30.694 0-24.052-4.3522-33.443-19.012-92.313l-23.135 4.5813zm17.867 85.212c0 11.224-6.4138 16.034-16.034 16.034-10.079 0-16.264-6.1848-18.554-16.951 1.8325 2.2907 3.8941 3.2069 6.1847 3.2069 3.665 0 7.33-3.2069 7.33-8.9334 0-5.0395-2.2906-8.2463-5.0394-10.079 4.5813-16.492 11.453-31.611 13.286-48.562 8.4754 39.857 12.828 46.5 12.828 65.283z"/>
   </g>
  </g>
 </g>
</svg>
