<?xml version="1.0" encoding="UTF-8" standalone="no"?>
<!-- Generated by IcoMoon.io -->
<svg id="svg2" xmlns:rdf="http://www.w3.org/1999/02/22-rdf-syntax-ns#" xmlns="http://www.w3.org/2000/svg" height="90.154" width="146.69" version="1.1" xmlns:cc="http://creativecommons.org/ns#" xmlns:dc="http://purl.org/dc/elements/1.1/" viewBox="0 0 146.69067 90.153633">
 <metadata id="metadata10">
  <rdf:RDF>
   <cc:Work rdf:about="">
    <dc:format>image/svg+xml</dc:format>
    <dc:type rdf:resource="http://purl.org/dc/dcmitype/StillImage"/>
    <dc:title/>
   </cc:Work>
  </rdf:RDF>
 </metadata>
 <defs id="defs8">
  <filter id="filter4857" style="color-interpolation-filters:sRGB">
   <feFlood id="feFlood4859" result="flood" flood-opacity=".49804" flood-color="rgb(0,0,0)"/>
   <feComposite id="feComposite4861" operator="in" result="composite1" in2="SourceGraphic" in="flood"/>
   <feGaussianBlur id="feGaussianBlur4863" stdDeviation="4.91803" result="blur" in="composite1"/>
   <feOffset id="feOffset4865" result="offset" dx="2.77556e-17" dy="3.6"/>
   <feComposite id="feComposite4867" operator="over" result="composite2" in2="offset" in="SourceGraphic"/>
  </filter>
 </defs>
 <g id="layer2" transform="translate(23.075 29.055)" display="none">
  <path id="path4" fill="#444" d="m48.89 22.928 48.693-22.938v-11.921h-97.362v11.884zm0.02434 13.454-48.693-22.999v47.707h97.362v-47.634z"/>
 </g>
 <g id="layer3" transform="translate(23.075 29.055)">
  <g id="g4156">
   <g id="g4153">
    <path id="path4142" d="m0.28883 37.364v-23.735l2.7794 1.2862c1.5286 0.707 12.472 5.864 24.319 11.46l21.539 10.175 23.656-11.137c13.011-6.1257 23.898-11.231 24.194-11.344 0.48975-0.18793 0.53812 1.9167 0.53812 23.412v23.618h-48.512-48.512v-23.735z" fill="#ccc"/>
   </g>
   <g id="g4793" filter="url(#filter4857)">
    <rect id="rect4466" height="53.592" width="122.24" y="-23.696" x="-10.851" fill="none"/>
    <path id="path4144" opacity=".825" d="m24.545 11.274-24.088-11.384-0.09189-5.7799l-0.092174-5.7798h48.52 48.52l-0.000056 5.8114-0.000061 5.8114-24.171 11.376c-13.295 6.256-24.248 11.365-24.341 11.353-0.092-0.013-11.008-5.146-24.256-11.408z" fill="#008080"/>
   </g>
  </g>
 </g>
</svg>
