<?xml version="1.0" standalone="no"?>
<!DOCTYPE svg PUBLIC "-//W3C//DTD SVG 20010904//EN"
 "http://www.w3.org/TR/2001/REC-SVG-20010904/DTD/svg10.dtd">
<svg version="1.0" xmlns="http://www.w3.org/2000/svg"
 width="700.000000pt" height="700.000000pt" viewBox="0 0 700.000000 700.000000"
 preserveAspectRatio="xMidYMid meet">
<metadata>
Created by potrace 1.11, written by Peter Selinger 2001-2013
</metadata>
<g transform="translate(0.000000,700.000000) scale(0.100000,-0.100000)"
fill="#000000" stroke="none">
<path d="M3650 4875 c0 -15 108 -217 178 -332 103 -170 201 -307 430 -600 401
-515 488 -646 682 -1037 l149 -298 14 33 c8 19 231 524 497 1123 265 599 484
1095 487 1103 4 11 -206 13 -1216 13 -672 0 -1221 -2 -1221 -5z"/>
<path d="M2687 4860 c-169 -4 -310 -9 -312 -12 -5 -5 122 -266 633 -1303 122
-247 354 -718 515 -1045 l293 -595 606 -3 606 -2 6 27 c3 16 9 80 12 144 15
258 -49 515 -206 829 -126 253 -266 465 -632 956 -382 513 -530 732 -649 955
l-32 59 -266 -2 c-146 -1 -404 -4 -574 -8z"/>
<path d="M1357 4850 c-174 -4 -320 -10 -323 -13 -4 -3 319 -668 717 -1476
l724 -1470 603 -1 602 0 -535 1063 c-295 584 -631 1252 -748 1485 l-212 422
-255 -2 c-140 -1 -398 -4 -573 -8z"/>
</g>
</svg>
