<?xml version="1.0" encoding="UTF-8" standalone="no"?>
<svg
   xmlns:dc="http://purl.org/dc/elements/1.1/"
   xmlns:cc="http://creativecommons.org/ns#"
   xmlns:rdf="http://www.w3.org/1999/02/22-rdf-syntax-ns#"
   xmlns:svg="http://www.w3.org/2000/svg"
   xmlns="http://www.w3.org/2000/svg"
   xmlns:sodipodi="http://sodipodi.sourceforge.net/DTD/sodipodi-0.dtd"
   xmlns:inkscape="http://www.inkscape.org/namespaces/inkscape"
   height="55.94"
   width="39"
   viewBox="0 0 39 55.939751"
   version="1.1"
   id="svg23"
   sodipodi:docname="about.svg"
   inkscape:version="0.92.1 r">
  <metadata
     id="metadata27">
    <rdf:RDF>
      <cc:Work
         rdf:about="">
        <dc:format>image/svg+xml</dc:format>
        <dc:type
           rdf:resource="http://purl.org/dc/dcmitype/StillImage" />
      </cc:Work>
    </rdf:RDF>
  </metadata>
  <sodipodi:namedview
     pagecolor="#ffffff"
     bordercolor="#666666"
     borderopacity="1"
     objecttolerance="10"
     gridtolerance="10"
     guidetolerance="10"
     inkscape:pageopacity="0"
     inkscape:pageshadow="2"
     inkscape:window-width="640"
     inkscape:window-height="480"
     id="namedview25"
     showgrid="false"
     inkscape:zoom="14.265285"
     inkscape:cx="4.849048"
     inkscape:cy="27.829799"
     inkscape:current-layer="svg23" />
  <defs
     id="defs13">
    <filter
       id="a"
       color-interpolation-filters="sRGB">
      <feFlood
         result="flood"
         flood-opacity=".498"
         flood-color="#000"
         id="feFlood2" />
      <feComposite
         operator="in"
         result="composite1"
         in2="SourceGraphic"
         in="flood"
         id="feComposite4" />
      <feGaussianBlur
         stdDeviation="2.7"
         result="blur"
         in="composite1"
         id="feGaussianBlur6" />
      <feOffset
         result="offset"
         dy="1.5"
         id="feOffset8" />
      <feComposite
         result="composite2"
         in2="offset"
         in="SourceGraphic"
         id="feComposite10" />
    </filter>
  </defs>
  <g
     id="g4508">
    <path
       id="path15"
       d="M19.5 36.94a2.5 2.5 0 0 0-2.5 2.5v9.5c0 1.1-.9 2-2 2s-2-.9-2-2L9.59 37.001c-3.64 1.02-6.18 2.79-8.28 5.53C.48 43.61.03 45.78 0 46.94v5c0 2.21 1.79 4 4 4h31c2.21 0 4-1.79 4-4v-5c-.03-1.16-.48-3.33-1.31-4.41-2.1-2.74-4.64-4.521-8.28-5.53L26 48.941c0 1.1-.9 2-2 2s-2-.9-2-2v-9.5a2.5 2.5 0 0 0-2.5-2.5z"
       fill="#ccc" />
    <g
       filter="url(#a)"
       id="g21"
       transform="translate(39.031 13.752)">
      <path
         fill="none"
         id="path17"
         d="M-35.709-10.298h32.388v34.547h-32.388z" />
      <path
         fill="#00989b"
         id="path19"
         d="M-21.908 18.706c-3.468-1.182-6.148-4.658-7.497-9.72-.482-1.813-.606-5.225-.24-6.677.92-3.67 3.966-6.793 7.516-7.71 1.295-.333 3.836-.34 5.131-.012C-12.449-4.26-9.128.043-9.118 4.8c.005 2.603-.8 5.652-2.212 8.388-.687 1.33-1.139 1.946-2.27 3.094-1.468 1.49-2.535 2.165-4.069 2.576-1.266.339-2.98.277-4.239-.152z" />
    </g>
  </g>
</svg>
