<svg xmlns="http://www.w3.org/2000/svg" height="55.94" width="39" viewBox="0 0 39 55.939751"><defs><filter id="a" color-interpolation-filters="sRGB"><feFlood result="flood" flood-opacity=".498" flood-color="#000"/><feComposite operator="in" result="composite1" in2="SourceGraphic" in="flood"/><feGaussianBlur stdDeviation="2.7" result="blur" in="composite1"/><feOffset result="offset" dy="1.5"/><feComposite result="composite2" in2="offset" in="SourceGraphic"/></filter></defs><path fill="#ccc" d="M19.5 36.94a2.5 2.5 0 0 0-2.5 2.5v9.5c0 1.1-.9 2-2 2s-2-.9-2-2L9.59 37.001c-3.64 1.02-6.18 2.79-8.28 5.53C.48 43.61.03 45.78 0 46.94v5c0 2.21 1.79 4 4 4h31c2.21 0 4-1.79 4-4v-5c-.03-1.16-.48-3.33-1.31-4.41-2.1-2.74-4.64-4.521-8.28-5.53L26 48.941c0 1.1-.9 2-2 2s-2-.9-2-2v-9.5a2.5 2.5 0 0 0-2.5-2.5z"/><g filter="url(#a)" transform="translate(39.031 13.752)"><path fill="none" d="M-35.709-10.298h32.388v34.547h-32.388z"/><path d="M-21.908 18.706c-3.468-1.182-6.148-4.658-7.497-9.72-.482-1.813-.606-5.225-.24-6.677.92-3.67 3.966-6.793 7.516-7.71 1.295-.333 3.836-.34 5.131-.012C-12.449-4.26-9.128.043-9.118 4.8c.005 2.603-.8 5.652-2.212 8.388-.687 1.33-1.139 1.946-2.27 3.094-1.468 1.49-2.535 2.165-4.069 2.576-1.266.339-2.98.277-4.239-.152z" fill="#00989b"/></g></svg>