<svg xmlns="http://www.w3.org/2000/svg" height="82.422" width="77.73" viewBox="0 0 77.730103 82.421844"><defs><filter id="a" color-interpolation-filters="sRGB"><feFlood result="flood" flood-opacity=".498" flood-color="#000"/><feComposite operator="in" result="composite1" in2="SourceGraphic" in="flood"/><feGaussianBlur stdDeviation="2.7" result="blur" in="composite1"/><feOffset result="offset" dy="1.4"/><feComposite result="composite2" in2="offset" in="SourceGraphic"/></filter></defs><path d="M23.156 29.861c-.223.024-.447.057-.67.08.272-.02.49-.033.67-.08zm-1.918 4.607v29.953c0 .844.282 1.545.844 2.108.562.562 1.265.844 2.11.844h3.093v10.549c0 1.31.445 2.387 1.336 3.232.89.845 1.945 1.268 3.164 1.268 1.219-.001 2.273-.425 3.164-1.268.89-.843 1.336-1.92 1.336-3.232v-10.55h5.906v10.55c0 1.31.445 2.387 1.336 3.232.89.845 1.945 1.268 3.164 1.268 1.219-.001 2.274-.425 3.164-1.268.89-.843 1.336-1.92 1.336-3.232v-10.55h3.094c.843 0 1.547-.281 2.11-.843.562-.562.843-1.264.843-2.108V34.468h-36zm-2.953 14.32c-.012.108-.03.217-.02.27.008.04.012.079.02.12v-.39z" fill="#ccc"/><path d="M63.081 64.291c-.908-.373-1.792-1.194-2.248-2.087-.47-.92-.492-1.5-.492-12.46 0-12.636-.015-12.504 1.535-13.809 2.145-1.804 5.214-1.225 6.616 1.25.558.986.56 1.027.564 12.522.004 11-.018 11.577-.488 12.498-.742 1.453-1.813 2.099-3.608 2.176-.828.035-1.673-.005-1.879-.09zm-51.59-.4c-.462-.312-1.096-.945-1.407-1.407l-.567-.84v-11.81c0-12.819-.037-12.455 1.41-13.824 1.948-1.842 4.991-1.437 6.517.868l.669 1.01.076 10.981c.043 6.04.007 11.462-.079 12.05-.171 1.176-1.223 2.576-2.389 3.179-1.102.57-3.233.466-4.23-.206z" fill="#00989b"/><g filter="url(#a)" transform="translate(-7.972 -18.977)"><path d="M29.515 48.494c.169-2.512.86-4.778 2.106-6.892.93-1.581 2.998-3.911 4.413-4.974l.732-.55-2.289-2.298c-1.259-1.264-2.29-2.485-2.29-2.712 0-.421 1.11-1.446 1.565-1.446.139 0 1.403 1.133 2.81 2.517l2.558 2.517 1.59-.636c2.38-.952 3.8-1.215 6.55-1.216 2.71-.002 3.902.229 6.305 1.22l1.57.649 2.567-2.526c1.411-1.389 2.73-2.525 2.932-2.525.492 0 1.45 1.047 1.45 1.584 0 .238-1.026 1.492-2.279 2.787-1.253 1.296-2.17 2.356-2.035 2.356.545 0 3.379 2.885 4.545 4.63 1.457 2.178 2.45 5.044 2.676 7.733l.156 1.837h-35.77l.138-2.055zM41.157 43.2v-1.62h-2.99v3.24h2.99V43.2zm15.197 0v-1.62h-3.239v3.24h3.239V43.2z" fill="#00989b"/><path fill="none" d="M14.45 22.671h64.775v35.626H14.45z"/><text font-size="5" y="59.543" x="36.374" font-family="Sans" fill="#666" word-spacing="0" letter-spacing="0"><tspan x="36.374" y="59.543">NExtGen</tspan></text></g></svg>