<svg xmlns="http://www.w3.org/2000/svg" class="w-full mt-20" width="448.217" height="250.811"><defs><clipPath clipPathUnits="userSpaceOnUse" id="a"><path fill="#2d3748" fill-rule="evenodd" stroke-width="3.78" stroke-linecap="round" stroke-linejoin="bevel" d="M-133.076.626h448.217V253.61h-448.217z"/></clipPath></defs><g transform="translate(133.076 -.626)" clip-path="url(#a)"><path class="fill-current text-secondary" d="M1152 250H-768V0s126.71 78.536 349.98 80.05c177.85 1.203 362.81-63.874 553.8-63.874 290.52 0 383.46 57.712 603.99 61.408C960.3 81.28 1017.83 16.176 1152 60.345" fill="#ff7d66"/><path class="fill-current text-secondary-lighter" d="M1152 144S684.08 260.86 124.8 126.706C-397.97 1.326-767.96 45.578-767.96 45.578v204.42h1920z" fill="#ff9b8a"/><path class="text-gray-100 fill-current dark:text-gray-800" d="M-768.02 196.99s208.55-75.581 701.33-20.768c376.71 41.908 520.83-67.962 722.54-67.962 222.93 0 311.6 87.808 496.18 90.679v52.498h-1920z" fill="#f7fafc"/></g></svg>