<svg xmlns="http://www.w3.org/2000/svg" class="w-full mt-20" width="448.217" height="250.811"><defs><clipPath clipPathUnits="userSpaceOnUse" id="a"><path fill="#2d3748" fill-rule="evenodd" stroke-width="4.851" stroke-linecap="round" stroke-linejoin="bevel" d="M.153.175H448.37v250.811H.153z"/></clipPath></defs><g clip-path="url(#a)"><path class="fill-current text-secondary" d="M1285.076 249.374h-1920v-250s126.71 78.536 349.98 80.05c177.85 1.203 362.81-63.874 553.8-63.874 290.52 0 383.46 57.712 603.99 61.408 220.53 3.696 278.06-61.408 412.23-17.239" fill="#ff7d66"/><path class="fill-current text-secondary-lighter" d="M1285.076 143.374s-467.92 116.86-1027.2-17.294C-264.894.7-634.884 44.952-634.884 44.952v204.42h1920z" fill="#ff9b8a"/><path class="text-gray-100 fill-current dark:text-gray-800" d="M-634.944 196.364s208.55-75.58 701.33-20.768c376.71 41.908 520.83-67.962 722.54-67.962 222.93 0 311.6 87.808 496.18 90.68v52.497h-1920z" fill="#2d3748"/></g></svg>