<svg xmlns="http://www.w3.org/2000/svg" class="w-full mt-20" width="1920.06" height="251.437"><path class="fill-current text-secondary" d="M1920.02 250H.02V0S126.73 78.536 350 80.05c177.85 1.203 362.81-63.874 553.8-63.874 290.52 0 383.46 57.712 603.99 61.408 220.53 3.696 278.06-61.408 412.23-17.239" fill="#ff7d66"/><path class="fill-current text-secondary-lighter" d="M1920.02 144s-467.92 116.86-1027.2-17.294C370.05 1.326.06 45.578.06 45.578v204.42h1920z" fill="#ff9b8a"/><path class="text-gray-100 fill-current dark:text-gray-800" d="M0 196.99s208.55-75.581 701.33-20.768c376.71 41.908 520.83-67.962 722.54-67.962 222.93 0 311.6 87.808 496.18 90.679v52.498H.05z" fill="#2d3748"/></svg>