<svg xmlns="http://www.w3.org/2000/svg" height="197.59" width="230.41" viewBox="0 0 230.411 197.593"><defs><filter id="a" color-interpolation-filters="sRGB"><feFlood result="flood" flood-opacity=".498" flood-color="#000"/><feComposite operator="in" result="composite1" in2="SourceGraphic" in="flood"/><feGaussianBlur stdDeviation=".6" result="blur" in="composite1"/><feOffset result="offset" dy=".9"/><feComposite result="composite2" in2="offset" in="SourceGraphic"/></filter></defs><path d="M209.94 24.7h-12.35V12.35c0-6.792-5.557-12.35-12.35-12.35H12.35C5.558 0 0 5.557 0 12.35v148.19c0 6.792 5.557 12.35 12.35 12.35H24.7v12.35c0 6.792 5.557 12.35 12.35 12.35h172.89c6.792 0 12.35-5.557 12.35-12.35V37.05c0-6.792-5.557-12.35-12.35-12.35zM24.7 37.05v123.5H12.375c-.006-.006-.019-.012-.025-.025V12.375c.006-.006.013-.018.025-.024h172.85c.006.006.018.012.025.024V24.7H37.06c-6.793 0-12.35 5.558-12.35 12.35zm185.24 148.17c-.006.006-.012.018-.025.025H37.065c-.006-.006-.018-.013-.024-.025V37.07c.006-.006.012-.019.024-.025h172.85c.006.006.019.013.025.025v148.15z" fill="#ccc"/><path d="M197.59 172.9H49.4v-24.699l43.224-74.097 49.398 61.748h12.35l43.224-37.049z" fill="#00989b"/><g filter="url(#a)" transform="translate(247.51 31.45) scale(6.1748)"><path fill="none" d="M-21.038-1.55h16.609v17.052h-16.609z"/><path fill="#00989b" d="M-10.083 5.907a3 3 0 11-6 0 3 3 0 016 0z"/></g></svg>