<svg xmlns="http://www.w3.org/2000/svg" xmlns:xlink="http://www.w3.org/1999/xlink" data-name="Layer 1" width="1171.44" height="502"><defs><linearGradient id="a" x1="599.5" y1="668.05" x2="599.5" y2="199" gradientUnits="userSpaceOnUse"><stop offset="0" stop-color="gray" stop-opacity=".25"/><stop offset=".54" stop-color="gray" stop-opacity=".12"/><stop offset="1" stop-color="gray" stop-opacity=".1"/></linearGradient><linearGradient id="e" x1="485.72" y1="258.88" x2="485.72" y2="71.12" xlink:href="#a"/><linearGradient id="c" x1="132" y1="515" x2="303" y2="515" xlink:href="#a" gradientTransform="translate(35.75 -198.88)"/><linearGradient xlink:href="#a" id="d" gradientUnits="userSpaceOnUse" x1="599.5" y1="668.05" x2="599.5" y2="199"/><linearGradient xlink:href="#b" id="f" x1="59.878" y1="96.087" x2="64.263" y2="96.087" gradientUnits="userSpaceOnUse" gradientTransform="translate(990.06 76.044) scale(1.97797)"/><linearGradient id="b"><stop offset="0" stop-color="#fea544"/><stop offset="1" stop-color="#fea544" stop-opacity="0"/></linearGradient></defs><g transform="translate(-120)"><path d="M329.23 367.18h-72.4l1-8.14c20.46-18.37 33.69-67.31 33.69-67.31a6.78 6.78 0 00-.87.18c-12 2.42-20.54 7.35-26.51 13.28l2.54-21.66c37.8-8.14 52.79-58.14 52.79-58.14-24.12 5.35-39.16 13.63-48.5 21.49l3.72-31.82c25.56 8.77 52-37.82 52-37.82l-1-.21.5-.32-.76.27c-28.25-6.09-43.35 10.06-48.25 16.77l.37-3.12q-1.12 3-2.18 5.88v.08q-3 8.13-5.49 16.06-2.17 6.77-4.06 13.4v-.06s-1.17-28.46-31.18-35.95c0 0 3.15 62.07 26.93 51.91-2.2 9-4 17.66-5.56 26.07q-1.49 8.21-2.6 16l-.14.16.14-.12-.06.41q-1 7.07-1.7 13.78c.46-8.62-1.11-33.52-30.45-56.92 0 0-39 68.54 27.5 82l.44.38-.1-.31.6.13.27-3.52a369.39 369.39 0 00.23 44.1c.07 1 .14 2 .21 2.95h-73.23c-27.94 57.79 15.52 89.46 15.52 89.46h120c46.6-58.74 16.59-89.34 16.59-89.34zm-78-65.68z" fill="url(#c)" opacity=".7"/><path d="M852.69 199H346.31A16.37 16.37 0 00330 215.42v348.52a16.37 16.37 0 0016.31 16.42h174.16v60.16h-7.94a8.3 8.3 0 00-8.27 8.33v12.07h16.21v7.14h158.06v-7.14h16.21v-12.07a8.3 8.3 0 00-8.27-8.33H679V640h-.51v-59.64h174.2A16.37 16.37 0 00869 563.94V215.42A16.37 16.37 0 00852.69 199z" transform="translate(105.72 -199)" fill="url(#d)" opacity=".7"/><path fill="#bdbdbd" d="M627.72 371h156v92h-156z"/><path d="M630.79 380h150.17c1.81-7.87 3.26-13 3.26-13h-157s1.61 5.11 3.57 13z" opacity=".1"/><path d="M455.82 3h499.8a16.1 16.1 0 0116.1 16.1V327h-532V19.1A16.1 16.1 0 01455.82 3z" fill="#535461"/><path d="M955.62 377h-499.8a16.1 16.1 0 01-16.1-16.1V327h532v33.9a16.1 16.1 0 01-16.1 16.1z" fill="#bdbdbd"/><circle cx="705.72" cy="352" r="9" fill="#535461"/><path d="M619.89 436h171.66a8.17 8.17 0 018.17 8.17V456h-188v-11.83a8.17 8.17 0 018.17-8.17z" fill="#bdbdbd"/><rect x="320.72" y="71.12" width="330" height="187.76" rx="4.5" ry="4.5" fill="url(#e)" opacity=".5" transform="translate(220)"/><rect x="475.585" y="33.335" width="460.27" height="263.331" rx="6.442" ry="6.442" fill="#fff" style="mix-blend-mode:normal"/><rect x="414.52" y="98.91" width="35.44" height="31.9" rx="4.5" ry="4.5" opacity=".5" transform="translate(220)" fill="#f57e7e"/><rect x="680.59" y="98.91" width="95.69" height="3.54" rx="1.77" ry="1.77" fill="#e0e0e0"/><rect x="680.59" y="109.55" width="79.54" height="3.54" rx="1.77" ry="1.77" fill="#e0e0e0"/><rect x="414.52" y="148.53" width="35.44" height="31.9" rx="4.5" ry="4.5" opacity=".5" transform="translate(220)" fill="#f57e7e"/><rect x="680.59" y="148.53" width="95.69" height="3.54" rx="1.77" ry="1.77" fill="#e0e0e0"/><rect x="680.59" y="159.16" width="95.69" height="3.54" rx="1.77" ry="1.77" fill="#e0e0e0"/><rect x="414.52" y="198.15" width="35.44" height="31.9" rx="4.5" ry="4.5" opacity=".5" transform="translate(220)" fill="#f57e7e"/><rect x="680.59" y="198.15" width="95.69" height="3.54" rx="1.77" ry="1.77" fill="#e0e0e0"/><rect x="680.59" y="208.78" width="96.33" height="3.54" rx="1.59" ry="1.59" fill="#e0e0e0"/><path d="M628.22 435.5h156v3h-156z" opacity=".1"/><path fill="#e0e0e0" d="M120 455.6h1171.44v32.93H120z"/><path fill="#e0e0e0" d="M261.16 488.53h889.11V502H261.16z"/><path opacity=".1" d="M261.16 488.53h889.11v4.49H261.16z"/><g fill-rule="evenodd"><path d="M540.72 71.12l12.413-.23 15.976 31.723h-12.873zm14.256-.108l12.413-.23c5.469 10.737 18.143 20.712 15.976 31.722h-12.873z" fill="#00989b"/><path d="M583.963 94.93L594.69 70.7h-26.088c3.22 6.823 6.992 9.967 11.356 16.531 1.425 2.145 2.506 4.633 4.005 7.7z" fill="#006565"/></g><path d="M1101.43 431.789s4.964 23.082 21.23 23.082h45.183c8.947 0 17.533-20.123 17.533-20.123z" fill="#934c4c" fill-rule="evenodd" stroke="#f57e7e" stroke-width="1.308"/><path d="M1225.588 351.153s48.241-7.916 36.917 39.435c-11.324 47.351-70.724 37.67-70.724 37.67l13.081-17.287s28.445 7.57 39.263-24.71c0 0 8.074-22.851-22.307-17.005z" fill="#dd7171" fill-rule="evenodd" stroke="#f57e7e" stroke-width="1.308"/><path d="M1066.148 345.312s2.766 94.253 75.608 104.232c0 0 70.492 6.97 85.832-104.232z" fill="#f57e7e" fill-rule="evenodd" stroke="#f57e7e" stroke-width="1.308"/><path d="M1195.476 319.918s26.54 2.118 17.67 25.99c-8.87 23.874-45.4 28.768-45.4 28.768s-32.135 1.342-17.282-28.07c2.332-4.618 8.966-2.77 15.82-6.375 6.856-3.605 13.79-8.59 13.79-8.59z" fill="#fff" fill-rule="evenodd" stroke="#000" stroke-width="1.308"/><path d="M1099.2 319.109s-24.74 2.887-20.479 26.557c4.261 23.67 48.767 28.707 48.767 28.707s31.97-3.973 12.23-28.584c0 0-37.435-8.02-40.519-26.68z" fill="#fff" fill-rule="evenodd" stroke="#000" stroke-width="1.308"/><path d="M1108.241 250.196c-5.345 11.354-6.403 21.827-5.816 31.962 0 0-41.833 48.119 39.723 62.973 0 0 87.548-4.642 42.416-64.352 0 0 1.798-52.598-25.02-16.4 0 0-18.982-3.547-32.799.103 0 0-4.164-12.097-18.504-14.286z" fill="#fff" fill-rule="evenodd" stroke="#000" stroke-width="1.308"/><path d="M1094.624 293.892s40.638-8.491 48.154-31.704m47.318 25.248s-36.383 6.752-47.318-25.248" fill="none" stroke="#000" stroke-width="1.308"/><path d="M1177.567 287.389c-13.939-1.139-24.533-7.166-30.78-17.51-1.174-1.944-3.031-5.852-3.031-6.378 0-.342 3.42-.147 10.386.592 3.142.333 5.76.541 5.815.463 3.176-4.475 8.956-10.241 11.5-11.473 1.074-.52 2.4-.82 3.63-.82 1.687 0 2.122.169 3.38 1.305.8.723 1.888 2.296 2.443 3.532 1.866 4.158 3.214 12.595 3.22 20.155l.01 3.605 2.249 3.138c1.236 1.726 2.202 3.175 2.146 3.22-.35.279-8.147.4-10.96.17z" fill="#747474"/><path d="M1096.294 291.717c1.258-2.323 3.713-6.042 5.215-7.9l1.27-1.571-.127-2.728c-.333-7.132.97-16.132 3.295-22.773.612-1.746 2.312-5.984 2.471-6.158.097-.106 3.387.727 4.601 1.166 5.368 1.938 10.054 6.098 12.627 11.209l.944 1.877 1.434-.327c2.933-.669 6.61-1.103 10.296-1.216l3.713-.114-.135.45c-.075.247-.598 1.346-1.163 2.441-5.54 10.746-20.226 20.16-40.612 26.035-1.902.548-3.743 1.057-4.092 1.131l-.634.134z" fill="#fecb95"/><path d="M1110.884 296.292s5.257 9.323 18.077 1.437m30.469-.935s4.143 9.265 17.405-.047" fill="none" stroke="#000" stroke-width="1.308"/><ellipse cx="1142.152" cy="306.088" rx="5.179" ry="3.423" fill-rule="evenodd"/><path d="M1129.617 321.383s11.259-2.922 13.03-11.746c0 0 .589 11.958 11.568 12.338m-74.965-16.619l11.732 1.332s.05 7.989 1.357 9.827m0 0l-13.199 2.262m130.485-15.143l-12.655 2.474s1.249 7.384-.035 9.41l12.005.124m-40.496-83.457l13.26-.305-10.453 13.036 13.45-.746m9.085 11.113l13.548.16-13.08 12.355 14.848-1.502m-105.826 64.849s-3.348 15.203 10.691 19.598c14.039 4.394 21.626 4.55 29.866 1.493" fill="none" stroke="#000" stroke-width="1.308"/><path d="M1129.87 353.917c-3.573-.271-8.422-1.26-13.458-2.746-3.655-1.078-5.059-1.66-6.82-2.826-1.257-.831-2.888-2.463-3.72-3.721-1.763-2.663-2.609-5.76-2.616-9.574 0-1.388.149-3.421.264-3.54.02-.02.467.258.996.617 2.886 1.953 6.568 3.915 10.354 5.517 1.53.648 4.807 1.903 5.794 2.22.283.091 1.209.452 2.058.801 4.574 1.885 10.136 3.717 14.99 4.94 1.025.257 1.887.503 1.917.545.029.042.378.503.776 1.023.892 1.17 2.041 2.884 2.678 3.996l.48.84-.562.21c-1.47.55-4.157 1.221-5.889 1.47-2.255.325-4.873.407-7.242.228z" fill="#fecb95"/><path d="M1167.19 374.678s15.37-42.348 42.298-22.215" fill="none" stroke="#000" stroke-width="1.308"/><path d="M1168.085 373.277c.83-2.024 3.91-7.97 5.132-9.904 2.985-4.729 6.873-9.2 10.137-11.656 6.075-4.574 12.73-5.523 19.409-2.769 1.612.665 4.892 2.51 5.923 3.332l.535.427-.903 1.197c-1.37 1.817-5.57 5.887-7.669 7.43-6.605 4.863-14.94 8.686-24.365 11.175-2.73.721-7.538 1.748-8.19 1.749h-.41z" fill="#747474"/><path d="M1110.294 259.848s-3.071 12.065-1.181 12.508l8.059-6.598z" fill="url(#f)" fill-rule="evenodd"/><path d="M1168.282 266.859l7.522-7.07s4.483 12.316 2.423 12.316c-2.06 0-9.945-5.246-9.945-5.246z" fill="#1a1a1a" fill-rule="evenodd"/><path d="M252.72 389s-19-83 23-190" fill="none" opacity=".6"/><path d="M178.72 364h147s29 37-16 92h-116s-42-38-15-92z" fill="#f57e7e"/><path d="M273.61 204.5s14.61-26 49.61-18c0 0-28.93 49.26-55 33.13zm-9.26 27.59s-1.13-26.59-30.13-33.59c0 0 3 58 26 48.5zm-9.48 39.27s5.35-27.86 61.35-39.86c0 0-17.86 57.62-63.93 55.31z" fill="#4db6ac"/><path d="M250.33 302.63s5.89-29.13-29.11-56.13c0 0-38 64.67 27.48 76.83z" fill="#4db6ac"/><path d="M249.28 342.67s-4.06-41.17 39.94-49.17c0 0-16.07 57.49-40 67.74z" fill="#4db6ac"/><path d="M268.72 220s38-29 54-34m-70.5 100.5s46-49 64-55m-82-33s28 38 26 48m-39 0s15 68 27 77m1 38s24-66 40-68" fill="none" opacity=".3"/><path d="M325.72 364h-147c-.33.67-.65 1.34-1 2h143s28.29 36.11-14.4 90h3.4c45-55 16-92 16-92z" opacity=".1"/></g></svg>