<svg xmlns="http://www.w3.org/2000/svg" height="48" width="47.141"><defs><filter id="a" color-interpolation-filters="sRGB"><feFlood result="flood" flood-opacity=".498" flood-color="#000"/><feComposite operator="in" result="composite1" in2="SourceGraphic" in="flood"/><feGaussianBlur stdDeviation="1.5" result="blur" in="composite1"/><feOffset result="offset" dy="1.3"/><feComposite result="composite2" in2="offset" in="SourceGraphic"/></filter></defs><path d="M4.5 0A4.513 4.513 0 000 4.5v39C0 45.975 2.025 48 4.5 48h36c2.475 0 4.5-2.025 4.5-4.5v-39C45 2.025 42.975 0 40.5 0h-36zM6 6h33v36H6V6zm16.908 4.592c.021.058.038.12.064.176.021.043-.013-.067-.035-.141l-.029-.035zm-7.42 9.816c.117.016.235.015.346.006a8.48 8.48 0 00-.346-.006zm-3.273 1.736l.013.034.004.004-.004-.016-.013-.022zm-.032.026c-.058-.142.073.252.102.303l.002-.03-.01-.05c-.04-.095-.042-.097-.094-.223zm11.395 4.96c-.034.062-.056.096-.078.147-.004.01-.003.016-.007.03l.076-.153.01-.023zm-3.66.595c-.013 0-.03.016-.045.02.04 0 .078-.002.118 0-.024-.007-.045-.023-.073-.02zm-.69.084l-.025.013c.01.003.006-.002.012 0h.002l.012-.013zm6.45 1.13c-.024.024-.085.072-.084.077.002.005.02-.016.018-.01a.269.269 0 01-.026.054l.016-.013c.037-.058.048-.065.076-.108zm1.033.053c-.009.025-.018.049-.025.074-.005.018.017-.032.021-.05l.004-.024zm-13.207.342c0-.009-.007.023-.01.03 0 .015 0 .03-.002.046l.008.031a.937.937 0 00.004-.107zm12.121 4.254c.004.026.01.094.006.055.085.293.075.261.047.16-.02-.072-.034-.14-.053-.215zm-10.453.158l.018.191s0-.002.002-.003v-.006c0-.06-.024-.232-.02-.182zm14.605.461c-.015.007-.028.018-.043.025l.006.006c.006-.003.034-.017.037-.02v-.011zm-.037.031l-.023.014.027-.012-.004-.002zm-.023.014l-.045.017c-.065.037-.13.073-.194.112l.012-.002c.13-.071.185-.103.227-.127zm-.045.017l.062-.037-.004-.004-.142.075c.028-.01.055-.023.084-.033zm-.09-.017a.668.668 0 00-.135.105l.037-.015.098-.09z" fill="#ccc"/><path d="M12.005 28.506v-1.468h20.964v2.936H12.005v-1.468zm0 5.99v-1.468h20.964v2.936H12.005v-1.468z" fill="#00989b"/><g filter="url(#a)" transform="translate(36.877 5.637)"><path fill="none" d="M-32.884-1.972H6.342v29.185h-39.226z"/><path d="M-24.872 16.824c0-.905.027-1.65.066-1.835.23-1.085 1.283-1.974 2.85-2.408.417-.115.651-.13 2.486-.16 1.208-.02 1.931-.052 1.791-.079l-.675-.13c-.542-.106-1.369-.506-1.848-.894-.695-.563-1.276-1.47-1.504-2.349-.148-.571-.162-1.521-.03-2.084.352-1.518 1.457-2.752 2.903-3.244 1.717-.584 3.487-.127 4.75 1.226.459.49.88 1.255 1.038 1.883.483 1.92-.374 3.964-2.087 4.979-.434.257-1.174.507-1.636.554-.825.083-.352.13 1.3.132 1.947.002 2.375.047 3.183.334 1.175.418 2.038 1.197 2.294 2.072.075.257.093.63.093 1.923v1.604h-14.974v-1.524z" fill="#00989b"/></g></svg>