<svg xmlns="http://www.w3.org/2000/svg" height="351.372" width="1483.474"><g fill-rule="evenodd"><path d="M113.374 81.136l63.849-1.183 82.173 163.17h-66.213zm73.328-.558l63.849-1.182c28.129 55.229 93.32 106.535 82.174 163.17h-66.213z" fill="#00989b"/><path d="M335.799 203.605l55.176-124.63H256.788c16.564 35.094 35.965 51.265 58.412 85.032 7.332 11.029 12.89 23.828 20.599 39.603z" fill="#006565"/></g><g fill="#3c3c3b"><path d="M445.391 156.702c0-24.28-15.347-29.778-30.465-29.778-32.985 0-43.75 38.483-43.75 64.138 0 39.17 20.386 52.914 41.46 52.914 23.364 0 45.126-19.928 52.914-42.377h-7.33c-8.017 17.867-21.76 24.968-36.192 24.968-13.057 0-24.052-5.497-26.342-29.778 30.924-3.436 49.707-18.783 49.707-40.086zm-49.936 31.153c0-22.448 7.789-49.707 23.823-49.707 7.33 0 11.453 4.81 11.453 16.264 0 17.18-13.744 30.007-35.276 33.443z"/><path d="M457.801 201.602c0 31.84 13.973 42.377 32.985 42.377 33.443 0 50.165-32.069 50.165-66.887 0-39.628-21.99-49.478-38.254-49.478-9.85 0-16.722 3.665-21.76 8.934V82.26l-22.907 3.207-.229 116.14zm62.763-19.24c0 23.822-8.704 45.812-26.113 45.812-9.391 0-13.515-6.643-13.515-20.616v-60.244c4.124-4.581 9.392-7.788 15.576-7.788 15.347 0 24.052 19.241 24.052 42.835zm81.777-8.66h-45.813v16.034h45.813zm66.05-46.8c-34.36 0-44.667 36.88-44.667 63.68 0 39.4 22.448 53.372 42.835 53.372 24.74 0 39.17-22.677 39.17-60.244 0-3.665 0-7.1-.458-10.766 10.08-5.04 15.347-17.18 17.867-27.259h-6.643c-1.603 4.582-4.352 11.453-13.057 11.453-3.894-17.409-13.515-30.236-35.047-30.236zm2.291 99.643c-10.308 0-22.219-7.1-22.219-36.879 0-22.448 6.872-50.165 25.884-50.165 6.414 0 12.14 3.207 15.805 12.14-5.04.687-8.475 4.123-8.475 10.308 0 8.705 3.894 13.744 12.369 13.744 0 1.604.229 3.207.229 4.81 0 29.092-7.56 46.043-23.594 46.043zm111.059-52.843h-45.813v16.034h45.813zm24.13-45.6v114.53h22.906v-84.296c5.269-5.497 11.911-11.453 18.783-11.453 6.643 0 7.56 5.727 12.828 5.727 3.665 0 10.537-2.749 10.537-11.911 0-7.56-4.81-13.744-15.118-13.744-13.057 0-19.929 9.62-27.03 20.387V128.1h-22.906zm148.65 28.6c0-24.28-15.347-29.778-30.465-29.778-32.985 0-43.75 38.483-43.75 64.138 0 39.17 20.386 52.914 41.46 52.914 23.364 0 45.126-19.928 52.914-42.377h-7.33c-8.017 17.867-21.76 24.968-36.192 24.968-13.057 0-24.052-5.497-26.342-29.778 30.924-3.436 49.707-18.783 49.707-40.086zm-49.936 31.153c0-22.448 7.789-49.707 23.823-49.707 7.33 0 11.453 4.81 11.453 16.264 0 17.18-13.744 30.007-35.276 33.443z"/><path d="M1040.691 165.402c0-30.924-8.704-42.148-19.24-42.148-7.56 0-11.683 5.727-11.683 11.682 0 5.727 3.665 12.14 10.995 12.14 1.375 0 4.582-.229 5.956-1.832 1.374 6.643 2.062 15.576 2.062 24.052 0 27.03-6.872 57.266-25.655 57.266-11.224 0-13.286-10.537-13.286-20.616v-77.882h-22.906v84.524c0 20.387 15.576 31.382 31.382 31.382 31.61 0 42.377-43.98 42.377-78.57zm17.74-37.3v82.692c0 14.89 5.269 33.214 26.342 33.214 10.08 0 24.968-4.123 31.84-42.377h-8.475c-3.436 16.492-9.163 24.968-16.493 24.968-9.85 0-10.308-14.66-10.308-20.616v-77.882h-22.906zm-4.123-32.985c0 8.476 6.643 15.118 15.118 15.118 8.246 0 15.347-6.643 15.347-15.118 0-8.246-7.1-15.347-15.347-15.347-8.475 0-15.118 7.101-15.118 15.347z"/><path d="M1179.561 156.702c0-24.28-15.347-29.778-30.465-29.778-32.985 0-43.75 38.483-43.75 64.138 0 39.17 20.386 52.914 41.46 52.914 23.364 0 45.126-19.928 52.914-42.377h-7.33c-8.017 17.867-21.76 24.968-36.192 24.968-13.057 0-24.052-5.497-26.342-29.778 30.924-3.436 49.707-18.783 49.707-40.086zm-49.936 31.153c0-22.448 7.789-49.707 23.823-49.707 7.33 0 11.453 4.81 11.453 16.264 0 17.18-13.744 30.007-35.276 33.443z"/><path d="M1191.971 128.102v80.401c0 26.113 14.431 35.505 32.298 35.505 9.392 0 18.783-5.497 24.74-17.867 5.268 11.682 16.95 17.867 28.861 17.867 31.611 0 42.377-43.98 42.377-78.569 0-30.924-8.704-42.148-19.24-42.148-7.56 0-11.683 5.727-11.683 11.682 0 5.727 3.665 12.14 10.995 12.14 1.375 0 4.582-.229 5.956-1.832 1.374 6.643 2.062 15.576 2.062 24.052 0 27.03-6.872 57.266-25.655 57.266-11.224 0-13.286-10.537-13.286-20.616V128.1h-22.906v73.53c0 15.805-9.163 24.968-17.867 24.968-8.018 0-13.744-5.727-13.744-20.616V128.1h-22.906zm165.168-2.5c-2.29 22.448-11.224 45.126-19.241 67.803-4.581 2.52-8.246 8.705-8.246 16.722 0 14.89 7.33 33.901 34.13 33.901 13.057 0 35.505-8.017 35.505-30.694 0-24.052-4.353-33.443-19.012-92.313l-23.135 4.582zm17.867 85.212c0 11.224-6.414 16.034-16.034 16.034-10.079 0-16.264-6.185-18.554-16.95 1.832 2.29 3.894 3.206 6.185 3.206 3.665 0 7.33-3.207 7.33-8.933 0-5.04-2.29-8.247-5.04-10.08 4.582-16.491 11.453-31.61 13.286-48.561 8.476 39.857 12.828 46.5 12.828 65.283z"/></g></svg>