<svg xmlns="http://www.w3.org/2000/svg" height="49.522" width="250"><g fill-rule="evenodd"><path d="M10 10.386l11.42-.211L36.118 39.36H24.275zm13.116-.099l11.42-.212c5.03 9.879 16.69 19.055 14.697 29.185H37.39z" fill="#00989b"/><path d="M49.783 32.292L59.652 10h-24c2.962 6.277 6.432 9.17 10.447 15.209 1.311 1.973 2.306 4.262 3.684 7.083z" fill="#006565"/></g><g fill="#fff"><path d="M69.385 23.902c0-4.343-2.745-5.326-5.449-5.326-5.9 0-7.825 6.883-7.825 11.472 0 7.006 3.646 9.464 7.415 9.464 4.18 0 8.072-3.564 9.465-7.58H71.68c-1.434 3.196-3.893 4.467-6.474 4.467-2.335 0-4.302-.984-4.711-5.327 5.53-.614 8.89-3.36 8.89-7.17zm-8.932 5.572c0-4.015 1.393-8.89 4.261-8.89 1.312 0 2.049.86 2.049 2.909 0 3.073-2.458 5.367-6.31 5.981z"/><path d="M71.605 31.933c0 5.695 2.499 7.58 5.9 7.58 5.981 0 8.972-5.736 8.972-11.964 0-7.088-3.933-8.85-6.842-8.85-1.762 0-2.991.656-3.892 1.599v-9.71l-4.097.573-.041 20.773zm11.226-3.441c0 4.26-1.557 8.194-4.671 8.194-1.68 0-2.417-1.188-2.417-3.687V22.223c.737-.82 1.68-1.393 2.786-1.393 2.745 0 4.302 3.442 4.302 7.662zm14.626-1.549h-8.194v2.868h8.194zm11.814-8.371c-6.146 0-7.99 6.597-7.99 11.39 0 7.047 4.016 9.546 7.662 9.546 4.425 0 7.006-4.056 7.006-10.775 0-.655 0-1.27-.081-1.926 1.802-.9 2.744-3.072 3.195-4.875h-1.188c-.287.82-.778 2.048-2.335 2.048-.697-3.113-2.418-5.408-6.269-5.408zm.41 17.823c-1.844 0-3.974-1.27-3.974-6.597 0-4.015 1.229-8.972 4.63-8.972 1.147 0 2.17.573 2.826 2.171-.901.123-1.516.738-1.516 1.844 0 1.557.697 2.458 2.213 2.458 0 .287.04.574.04.86 0 5.204-1.351 8.236-4.22 8.236zm19.864-9.452h-8.194v2.868h8.194zm4.316-8.156v20.485h4.097V24.195c.942-.984 2.13-2.049 3.36-2.049 1.188 0 1.352 1.024 2.294 1.024.655 0 1.885-.491 1.885-2.13 0-1.352-.86-2.458-2.704-2.458-2.336 0-3.565 1.72-4.835 3.646v-3.441h-4.097zm26.588 5.115c0-4.343-2.745-5.326-5.45-5.326-5.899 0-7.825 6.883-7.825 11.472 0 7.006 3.647 9.464 7.416 9.464 4.179 0 8.071-3.564 9.464-7.58h-1.31c-1.435 3.196-3.893 4.467-6.474 4.467-2.335 0-4.302-.984-4.712-5.327 5.532-.614 8.891-3.36 8.891-7.17zm-8.932 5.572c0-4.015 1.393-8.89 4.261-8.89 1.311 0 2.049.86 2.049 2.909 0 3.073-2.459 5.367-6.31 5.981z"/><path d="M175.861 25.458c0-5.53-1.557-7.538-3.441-7.538-1.352 0-2.09 1.024-2.09 2.09 0 1.024.656 2.17 1.967 2.17.246 0 .82-.04 1.065-.327.246 1.188.369 2.786.369 4.302 0 4.835-1.23 10.243-4.589 10.243-2.007 0-2.376-1.885-2.376-3.688V18.78h-4.097v15.118c0 3.647 2.786 5.613 5.613 5.613 5.654 0 7.58-7.866 7.58-14.053zm3.173-6.671v14.79c0 2.663.943 5.941 4.712 5.941 1.802 0 4.466-.737 5.695-7.58h-1.516c-.615 2.95-1.64 4.466-2.95 4.466-1.762 0-1.844-2.622-1.844-3.687v-13.93h-4.097zm-.737-5.9A2.676 2.676 0 00181 15.591c1.475 0 2.745-1.188 2.745-2.704 0-1.475-1.27-2.745-2.745-2.745-1.516 0-2.704 1.27-2.704 2.745z"/><path d="M200.7 23.902c0-4.343-2.745-5.326-5.45-5.326-5.9 0-7.825 6.883-7.825 11.472 0 7.006 3.647 9.464 7.416 9.464 4.179 0 8.071-3.564 9.464-7.58h-1.31c-1.435 3.196-3.893 4.467-6.474 4.467-2.335 0-4.302-.984-4.712-5.327 5.531-.614 8.891-3.36 8.891-7.17zm-8.932 5.572c0-4.015 1.393-8.89 4.261-8.89 1.311 0 2.049.86 2.049 2.909 0 3.073-2.459 5.367-6.31 5.981z"/><path d="M202.92 18.787v14.38c0 4.671 2.58 6.351 5.776 6.351 1.68 0 3.36-.983 4.425-3.196.942 2.09 3.032 3.196 5.162 3.196 5.654 0 7.58-7.866 7.58-14.053 0-5.531-1.557-7.539-3.442-7.539-1.352 0-2.089 1.025-2.089 2.09 0 1.024.656 2.171 1.967 2.171.245 0 .819-.04 1.065-.327.246 1.188.369 2.785.369 4.302 0 4.834-1.23 10.242-4.59 10.242-2.007 0-2.375-1.884-2.375-3.687v-13.93h-4.097v13.151c0 2.827-1.64 4.466-3.196 4.466-1.434 0-2.458-1.024-2.458-3.687v-13.93h-4.097zm29.541-.447c-.41 4.015-2.007 8.071-3.441 12.127-.82.45-1.475 1.557-1.475 2.991 0 2.663 1.311 6.064 6.105 6.064 2.335 0 6.35-1.434 6.35-5.49 0-4.302-.778-5.982-3.4-16.512l-4.138.82zm3.196 15.24c0 2.008-1.147 2.869-2.868 2.869-1.802 0-2.909-1.106-3.318-3.032.327.41.696.574 1.106.574.655 0 1.31-.574 1.31-1.598 0-.902-.409-1.475-.9-1.803.819-2.95 2.048-5.654 2.376-8.686 1.516 7.129 2.294 8.317 2.294 11.677z"/></g></svg>