<svg xmlns="http://www.w3.org/2000/svg" height="90.154" width="146.69" viewBox="0 0 146.69067 90.153633"><defs><filter id="a" color-interpolation-filters="sRGB"><feFlood result="flood" flood-opacity=".498" flood-color="#000"/><feComposite operator="in" result="composite1" in2="SourceGraphic" in="flood"/><feGaussianBlur stdDeviation="4.918" result="blur" in="composite1"/><feOffset result="offset" dy="3.6"/><feComposite result="composite2" in2="offset" in="SourceGraphic"/></filter></defs><path d="M23.364 66.419V42.684l2.78 1.286c1.528.707 12.471 5.864 24.318 11.46l21.54 10.175 23.655-11.137c13.011-6.126 23.898-11.23 24.194-11.344.49-.188.538 1.917.538 23.412v23.618H23.365V66.42z" fill="#ccc"/><g filter="url(#a)" transform="translate(23.075 29.055)"><path fill="none" d="M-10.851-23.696h122.24v53.592h-122.24z"/><path opacity=".825" d="M24.545 11.274L.457-.11.365-5.89l-.092-5.78h97.04V-.047L73.142 11.33C59.847 17.585 48.894 22.694 48.8 22.682c-.092-.013-11.008-5.146-24.256-11.408z" fill="teal"/></g></svg>