<svg xmlns="http://www.w3.org/2000/svg" height="935.19" width="1545.8" viewBox="0 0 1545.8065 935.18988"><g transform="translate(-421.9 -330.516)"><path fill="#ccc" d="M1774.8 953.53c0 12.715-9.99 23.008-23.008 23.008h-878.25c-12.715 0-23.008-9.99-23.008-23.008V353.5c0-12.715 9.99-23.008 23.008-23.008h877.64c12.715 0 23.008 9.99 23.008 23.008v600.03h.605z"/><path fill="#474e5d" d="M1774.8 353.51v526.46H850.24V353.51c0-12.715 9.99-23.008 23.008-23.008h877.64c13.32-.605 23.916 10.293 23.916 23.008z"/><path fill="#00989b" d="M895.01 374.7h832.83v458.65H895.01z"/><path fill="#ccc" d="M1432.1 963.52c0-48.741-89.913-16.045-119.58-3.633-29.971-12.412-119.58-44.805-119.58 3.633 0 83.859-51.768 155-51.768 155h342.705c-.303 0-51.768-71.144-51.768-155z"/><path fill="#a1a1a1" d="M1128.1 1099.5h368.13v19.375H1128.1z"/><path opacity=".3" d="M1438.1 1015.3h-251.27c2.725-12.412 4.541-25.127 6.055-39.053h239.77c.302 13.926 2.724 26.944 5.45 39.053z" fill="#a1a1a1"/><circle cy="927.5" cx="1309.2" r="16.953" fill="#fff"/><path fill="#e6e6e6" d="M925.41 394.89h166.204v48.136H925.41z"/><path fill="#4d4d4d" d="M1104.33 394.89h593.067v48.136h-593.068z"/><path d="M925.41 707.318h183.763v102.326H925.41zm196.176 0h183.763v102.326h-183.763zm196.478 0h183.763v102.326h-183.763zm196.478 0h183.763v102.326h-183.763z" fill="#ececec"/><path fill="#636363" d="M925.41 523.858h771.382v162.268H925.41z"/><path fill="#a6a6a6" d="M925.41 458.769h771.382v43.291H925.41z"/></g><path opacity=".15" d="M834.29 501.81l471.08 1 1-330.06c-100.91 198.82-270.12 289.8-472.08 329.06z" fill-rule="evenodd" fill="#f9f9f9"/><g transform="translate(745.3 -487.81)"><g transform="translate(-1544.6 345.13)"><path stroke-linejoin="round" stroke="#474e5d" stroke-width="20" fill="#00989b" d="M879.66 531.7h679.83v416.96H879.66z"/><ellipse rx="5.882" ry="4.412" cy="531.4" cx="1208.5" fill="#fff"/><path d="M882.9 958.69h-13.327v-11.581zm673.3-.01h13.327v-11.581z" fill-rule="evenodd" fill="#474e5d"/><path d="M852.97 994.98a2502.654 2502.654 0 0 0-17.152-5.119c-12.373-3.642-23.067-11.924-30.753-23.815-3.174-4.911-5.772-9.595-5.772-10.408 0-.99 63.995-1.036 193.75-.14 106.56.737 292.52 1.296 413.24 1.243s219.49.313 219.49.815c0 2.085-8.863 14.664-13.836 19.637-6.56 6.56-13.174 10.02-26.605 13.92-10.178 2.955-14.164 2.998-352.21 3.866-188.05.483-348.86 1.183-357.35 1.557-11.255.495-17.434.073-22.794-1.556z" fill="#ccc"/></g><path fill="#e6e6e6" d="M-635.63 924.243h132.73v38.441h-132.73z"/><path fill="#4d4d4d" d="M-490.085 924.243h470.968v38.441h-470.968z"/><path d="M-635.63 1173.75h146.754v81.718H-635.63zm156.425 0h146.754v81.718h-146.754zm157.15 0H-175.3v81.718h-146.755zm156.667 0h146.755v81.718h-146.755z" fill="#ececec"/><path fill="#636363" d="M-635.63 1027.237H-19.6v129.588h-616.03z"/><path fill="#a6a6a6" d="M-635.63 975.256H-19.6v34.573h-616.03z"/><a opacity=".15" transform="translate(124.92 236.68)"><path d="M-521.93 1047.4h400.29l.707-266.63c-76.86 135.09-212.88 222.05-401 266.63z" fill-rule="evenodd" fill="#fff"/></a></g><path stroke-linejoin="round" stroke="#474e5d" stroke-width="33.816" fill="#00989b" d="M1097.49 364.73h345.84v437.86h-345.84z"/><g fill="#fff" transform="translate(3448.79 -1072.77)"><ellipse rx="7.779" ry="7.426" cy="1875.2" cx="-2185.3"/><ellipse opacity=".782" rx="4.243" ry="4.597" cy="1436.7" cx="-2218.6"/><path opacity=".773" d="M-2209.4 1435h75.673v2.829h-75.673z"/></g><path fill="#a6a6a6" d="M1145.17 482.83h253.88v20.048h-253.88z"/><path fill="#636363" d="M1144.471 517.565h253.879v80.43h-253.879z"/><path fill="#e6e6e6" d="M1145.17 404.73h121.928v63.878H1145.17z"/><path fill="#4d4d4d" d="M1276.656 404.73h121.927v63.878h-121.927z"/><path d="M1144.471 615.48H1265.7v64.81h-121.228zm132.651 0h121.228v64.81h-121.228zm-132.651 80.896H1265.7v64.81h-121.228zm132.651 0h121.228v64.81h-121.228z" fill="#ececec"/><path opacity=".15" d="M1264.89 785.83h161.25l.707-190.24c-31.008 101.01-89.563 156.95-161.96 190.24z" fill-rule="evenodd" fill="#fff"/><g transform="translate(3320.94 -783.7)"><path stroke-linejoin="round" fill-rule="evenodd" stroke="#474e5d" stroke-width="88.004" fill="#474e5d" d="M-1919.5 1423.3h100.44v251.54h-100.44z"/><path opacity=".798" fill-rule="evenodd" fill="#fff" d="M-1895.8 1403.4h61.511v3.501h-61.511z"/><path fill="#00989b" d="M-1943.9 1424.8h148.03v260.04h-148.03z"/><circle cx="-1870.3" cy="1702" r="7" fill="#fff"/><circle opacity=".825" cx="-1904.8" cy="1405.9" r="4" fill="#fff"/></g><path fill="#a6a6a6" d="M1384.44 753.3h134.11v24.825h-134.11z"/><path fill="#636363" d="M1384.44 789.1h135.02v52.677h-135.02z"/><path fill="#e6e6e6" d="M1384.458 663.73h134.114v42.08h-134.114z"/><path fill="#4d4d4d" d="M1384.458 719.736h135.022v22.706h-135.022z"/><path fill="#ececec" d="M1384.44 855.7h135.02v32.917h-135.02z"/></svg>