<svg xmlns="http://www.w3.org/2000/svg" width="850" height="200" viewBox="0 0 224.896 52.917"><defs><filter id="c" color-interpolation-filters="sRGB"><feTurbulence type="fractalNoise" baseFrequency=".1" numOctaves="3" result="result7"/><feColorMatrix values="0" result="result8" type="saturate"/><feColorMatrix values="1 0 0 0 0 0 1 0 0 0 0 0 1 0 0 0 0 0 20 -12" result="result6"/><feGaussianBlur stdDeviation="2" result="result5" in="result6"/><feColorMatrix in="result5" values="1 0 0 0 0 0 1 0 0 0 0 0 1 0 0 0 0 0 10 -0.1" result="result0"/><feComposite k1=".8" k2="1" in2="SourceGraphic" operator="arithmetic" result="result3" in="result0"/><feComposite operator="atop" in2="result8"/><feBlend in2="SourceGraphic" result="result9"/><feComposite in="result9" in2="SourceGraphic" operator="atop" result="result2"/></filter><filter x="-.25" width="1.5" y="-.5" height="2" id="b" color-interpolation-filters="sRGB"><feFlood flood-color="#9EECFE" result="result9"/><feGaussianBlur result="result8" stdDeviation="7" in="SourceGraphic"/><feTurbulence baseFrequency=".05" numOctaves="2" type="fractalNoise" result="result7"/><feColorMatrix values="1 0 0 0 0 0 1 0 0 0 0 0 1 0 0 0 0 0 2 -0.75" result="result5"/><feComposite in2="result7" in="result8" operator="out" result="result6"/><feDisplacementMap in2="result6" result="result4" scale="100" in="result5"/><feComposite in2="result4" in="result8" operator="arithmetic" result="result2" k1="1" k3=".5"/><feComposite in2="result2" operator="in" in="SourceGraphic" result="fbSourceGraphic"/><feMerge result="result10"><feMergeNode in="result9"/><feMergeNode in="fbSourceGraphic"/></feMerge><feComposite in2="SourceAlpha" operator="in" result="result11"/></filter><filter id="a" color-interpolation-filters="sRGB"><feFlood flood-opacity=".498" flood-color="#000" result="flood"/><feComposite in="flood" in2="SourceGraphic" operator="in" result="composite1"/><feGaussianBlur in="composite1" stdDeviation="1.6" result="blur"/><feOffset dx="3.7" dy=".6" result="offset"/><feComposite in="SourceGraphic" in2="offset" result="composite2"/></filter></defs><g filter="url(#a)" font-weight="700" font-size="32.456" font-family="Nunito Sans" letter-spacing="0" word-spacing="0"><g filter="url(#b)" fill="silver"><path d="M70.443 35.956V13.075h15.319v3.31h-11.23v6.296h10.58v3.278h-10.58v6.686h11.23v3.31zm27.62-8.179l6.685 8.179h-4.803l-4.22-5.29-4.186 5.29h-4.804l6.654-8.179-6.296-7.692h4.835l3.798 4.836 3.797-4.836h4.836zm16.519 5.388q.714 0 1.493-.098l-.194 3.019q-.974.097-1.785.097-3.343 0-4.934-1.525-1.59-1.558-1.59-4.61v-6.912h-3.05v-3.051h3.05v-4.739h4.057v4.739h4.187v3.05h-4.187v6.849q0 3.18 2.953 3.18z" style="line-height:6.61458px;-inkscape-font-specification:'Nunito Sans, Bold';font-variant-ligatures:normal;font-variant-caps:normal;font-variant-numeric:normal;font-variant-east-asian:normal"/></g><g fill="#148db0" filter="url(#c)"><path d="M61.582 13.075h3.928v22.88h-3.15L50.093 19.989v15.968H46.2V13.075h3.115L61.582 29.01zm76.304 10.515v10.97q-1.558.78-3.798 1.233-2.207.455-4.511.455-3.538 0-6.134-1.396-2.597-1.428-3.992-4.057-1.363-2.661-1.363-6.296 0-3.603 1.363-6.232 1.395-2.66 3.927-4.056 2.564-1.429 6.004-1.429 2.402 0 4.511.714 2.11.682 3.506 1.98l-1.396 3.019q-1.59-1.234-3.148-1.753-1.526-.552-3.376-.552-3.537 0-5.355 2.11-1.785 2.077-1.785 6.199 0 8.438 7.4 8.438 2.207 0 4.414-.616v-5.745h-4.933V23.59zm18.272 5.16H145.35q.195 2.208 1.331 3.279 1.136 1.07 3.246 1.07 2.628 0 4.803-1.687l1.168 2.791q-1.103.909-2.79 1.46-1.656.552-3.344.552-3.894 0-6.166-2.207-2.24-2.207-2.24-6.036 0-2.434.974-4.317.974-1.882 2.726-2.92 1.785-1.04 4.025-1.04 3.278 0 5.16 2.11 1.915 2.11 1.915 5.81zm-6.978-6.198q-1.623 0-2.629 1.038-.974 1.039-1.2 2.986h7.334q-.065-1.98-.973-2.986-.91-1.038-2.532-1.038zm19.506-2.856q2.856 0 4.251 1.622 1.396 1.623 1.396 4.901v9.737h-4.057v-9.51q0-1.85-.714-2.694-.681-.843-2.174-.843-1.753 0-2.824 1.103-1.039 1.104-1.039 2.954v8.99h-4.057V20.085h3.96v2.37q.811-1.331 2.175-2.045 1.363-.714 3.083-.714z" style="line-height:6.61458px;-inkscape-font-specification:'Nunito Sans, Bold';font-variant-ligatures:normal;font-variant-caps:normal;font-variant-numeric:normal;font-variant-east-asian:normal"/></g></g></svg>