<svg xmlns="http://www.w3.org/2000/svg" width="660" height="210"><defs><clipPath clipPathUnits="userSpaceOnUse" id="a"><path d="M0 512h512V0H0z"/></clipPath></defs><g clip-path="url(#a)" transform="matrix(1.639 0 0 -1.639 -89.807 525.187)"><path d="M452.954 281.487c-3.6 10.292-13.41 17.683-24.933 17.683h-.241c-7.491 0-14.242-3.117-19.047-8.122-4.814 5.005-11.565 8.122-19.047 8.122h-.241a26.272 26.272 0 01-17.227-6.401v2.028c-.157 2.02-1.82 3.609-3.874 3.609h-17.675a3.905 3.905 0 01-3.907-3.916v-95.983a3.905 3.905 0 013.907-3.916h17.675c1.97 0 3.592 1.472 3.85 3.376l-.01 68.904c0 .24.01.466.034.69.283 3.076 2.536 5.604 6.094 5.92h3.258c1.489-.133 2.744-.657 3.733-1.447 1.538-1.222 2.395-3.101 2.395-5.163l.066-68.564a3.918 3.918 0 013.908-3.924h17.675c2.087 0 3.783 1.663 3.883 3.733l-.01 68.847c-.007 2.26 1.04 4.306 2.878 5.52.906.582 1.995.973 3.25 1.089h3.26c3.825-.332 6.136-3.234 6.128-6.61l.066-68.472a3.91 3.91 0 013.908-3.915h17.675a3.91 3.91 0 013.907 3.915v73.644c0 5.022-.565 7.158-1.338 9.353m-119.658 16.668h-10.11v16.428a3.566 3.566 0 01-3.566 3.567c-.233 0-.458-.034-.674-.075-11.207-3.076-8.962-18.598-29.422-19.92h-1.987c-.3 0-.582-.042-.857-.1h-.016l.016-.008c-1.746-.39-3.059-1.937-3.059-3.8v-17.675a3.915 3.915 0 013.916-3.907h10.666l-.016-74.949a3.864 3.864 0 013.866-3.866h17.475a3.863 3.863 0 013.858 3.866l.008 74.95h9.902a3.913 3.913 0 013.907 3.906v17.675a3.913 3.913 0 01-3.907 3.908" fill="#17baed"/><path d="M269.703 298.155h-17.675a3.907 3.907 0 01-3.899-3.908V257.7a4.139 4.139 0 00-4.14-4.074h-7.4a4.138 4.138 0 00-4.149 4.141l-.066 36.48a3.914 3.914 0 01-3.908 3.908h-17.675a3.908 3.908 0 01-3.907-3.908v-40.055c0-15.215 10.85-26.064 26.072-26.064 0 0 11.423 0 11.772-.067a4.116 4.116 0 003.667-4.09 4.116 4.116 0 00-3.609-4.082c-.099-.017-.19-.042-.299-.058l-25.848-.092a3.908 3.908 0 01-3.907-3.907v-17.667a3.903 3.903 0 013.907-3.908h28.9c15.23 0 26.071 10.842 26.071 26.064v73.926a3.908 3.908 0 01-3.907 3.908M98.62 265.769V254.86a4.147 4.147 0 00-4.14-4.148l-11.216-.01v21.858H94.48a4.135 4.135 0 004.14-4.14zm1.555 32.39H61.54a3.833 3.833 0 01-3.832-3.832v-17.318c0-.033.008-.066.008-.1 0-.083-.008-.166-.008-.241v-78.382c0-2.128 1.596-3.866 3.574-3.916H79.29a3.908 3.908 0 013.908 3.908l.066 26.86h16.911c14.15 0 24.01 9.82 24.01 24.028v24.933c0 14.209-9.86 24.06-24.01 24.06m71.782-73.886v-2.76a4.02 4.02 0 00-.067-.65 4.037 4.037 0 00-.166-.572c-.549-1.547-2.095-2.67-3.932-2.67h-7.358c-2.295 0-4.165 1.747-4.165 3.892v3.334c0 .04-.008.083-.008.124l.008 8.87v2.778l.008.025c.008 2.137 1.862 3.866 4.157 3.866h7.358c2.302 0 4.165-1.738 4.165-3.891zm-2.81 73.785h-24.526c-2.17 0-3.924-1.646-3.924-3.666v-6.876c0-.041.008-.091.008-.133 0-.05-.008-.1-.008-.15v-9.42c0-2.136 1.862-3.882 4.157-3.882h23.353c1.846-.291 3.31-1.637 3.517-3.741v-2.278c-.208-2.003-1.654-3.467-3.417-3.633h-11.564c-15.38 0-26.339-10.218-26.339-24.567V219.16c0-14.266 9.42-24.418 24.692-24.418h32.05c5.753 0 10.417 4.357 10.417 9.719v67.068c0 16.26-8.38 26.529-28.416 26.529" fill="#223368"/></g></svg>