<svg xmlns="http://www.w3.org/2000/svg" height="60.11" width="74.927" viewBox="0 0 74.927152 60.109913"><defs><filter id="a" color-interpolation-filters="sRGB"><feFlood result="flood" flood-opacity=".498" flood-color="#000"/><feComposite operator="in" result="composite1" in2="SourceGraphic" in="flood"/><feGaussianBlur stdDeviation="4.918" result="blur" in="composite1"/><feOffset result="offset" dy="3.6"/><feComposite result="composite2" in2="offset" in="SourceGraphic"/></filter><filter id="b" x="-.129" width="1.259" y="-.178" height="1.357" color-interpolation-filters="sRGB"><feGaussianBlur stdDeviation="3.294"/></filter><filter id="c" x="-.129" width="1.259" y="-.178" height="1.357" color-interpolation-filters="sRGB"><feGaussianBlur stdDeviation="3.294"/></filter></defs><path fill="none" filter="url(#a)" d="M-28.121-9.246h122.24v53.592h-122.24z"/><g transform="translate(-33.463 -11.852)"><g style="line-height:25.00011444px"><path style="-inkscape-font-specification:'Sans, Normal';font-variant-ligatures:normal;font-variant-caps:normal;font-variant-numeric:normal;font-feature-settings:normal;text-align:start" d="M48.326 87.623v3.375h-1.453q-5.836 0-7.828-1.734-1.969-1.735-1.969-6.914v-5.602q0-3.539-1.265-4.898-1.266-1.36-4.594-1.36h-1.43v-3.35h1.43q3.351 0 4.594-1.336 1.265-1.36 1.265-4.852v-5.625q0-5.18 1.969-6.89 1.992-1.735 7.828-1.735h1.453v3.352h-1.594q-3.304 0-4.312 1.031-1.008 1.031-1.008 4.336v5.812q0 3.68-1.078 5.344-1.055 1.664-3.633 2.25 2.602.633 3.656 2.297 1.055 1.664 1.055 5.32v5.813q0 3.305 1.008 4.336 1.008 1.031 4.312 1.031z" font-size="48" transform="translate(6.074 -26.943)" font-weight="400" font-family="Sans" letter-spacing="0" word-spacing="0" opacity=".686" filter="url(#b)"/></g><g style="line-height:25.00011444px"><path style="-inkscape-font-specification:'Sans, Normal';font-variant-ligatures:normal;font-variant-caps:normal;font-variant-numeric:normal;font-feature-settings:normal;text-align:start" d="M54.4 60.68v3.375h-1.453q-5.836 0-7.828-1.734-1.969-1.734-1.969-6.914v-5.602q0-3.539-1.265-4.898-1.266-1.36-4.594-1.36h-1.43v-3.351h1.43q3.351 0 4.594-1.336 1.265-1.36 1.265-4.852v-5.625q0-5.18 1.969-6.89 1.992-1.735 7.828-1.735H54.4v3.352h-1.593q-3.305 0-4.313 1.031-1.008 1.031-1.008 4.336v5.813q0 3.68-1.078 5.343-1.055 1.665-3.633 2.25 2.602.633 3.657 2.297 1.054 1.664 1.054 5.32v5.813q0 3.305 1.008 4.336 1.008 1.031 4.313 1.031z" font-size="48" font-weight="400" font-family="Sans" letter-spacing="0" word-spacing="0" fill="teal"/></g><g style="line-height:25.00011444px"><path style="-inkscape-font-specification:'Sans, Normal';font-variant-ligatures:normal;font-variant-caps:normal;font-variant-numeric:normal;font-feature-settings:normal;text-align:start" d="M85.845 59.932h1.64q3.282 0 4.266-1.008 1.008-1.007 1.008-4.359v-5.812q0-3.657 1.055-5.32 1.055-1.665 3.656-2.298-2.601-.586-3.656-2.25-1.055-1.664-1.055-5.343v-5.813q0-3.328-1.008-4.336-.984-1.031-4.265-1.031h-1.64V19.01h1.476q5.836 0 7.781 1.735 1.969 1.71 1.969 6.89v5.625q0 3.492 1.265 4.852 1.266 1.336 4.594 1.336h1.453v3.351h-1.453q-3.328 0-4.594 1.36-1.265 1.36-1.265 4.898v5.602q0 5.18-1.969 6.914-1.945 1.734-7.781 1.734h-1.477z" font-size="48" transform="translate(1.608 .748)" font-weight="400" font-family="Sans" letter-spacing="0" word-spacing="0" opacity=".7" filter="url(#c)"/></g><g style="line-height:25.00011444px"><path style="-inkscape-font-specification:'Sans, Normal';font-variant-ligatures:normal;font-variant-caps:normal;font-variant-numeric:normal;font-feature-settings:normal;text-align:start" d="M87.453 60.68h1.64q3.282 0 4.266-1.007 1.008-1.008 1.008-4.36v-5.812q0-3.657 1.055-5.32 1.055-1.665 3.656-2.298-2.601-.585-3.656-2.25-1.055-1.664-1.055-5.343v-5.813q0-3.328-1.008-4.336-.984-1.031-4.265-1.031h-1.641v-3.352h1.477q5.836 0 7.78 1.735 1.97 1.71 1.97 6.89v5.625q0 3.493 1.265 4.852 1.266 1.336 4.594 1.336h1.453v3.352h-1.453q-3.328 0-4.594 1.359-1.265 1.36-1.265 4.898v5.602q0 5.18-1.97 6.914-1.944 1.734-7.78 1.734h-1.477z" font-size="48" font-weight="400" font-family="Sans" letter-spacing="0" word-spacing="0" fill="#ccc"/></g><circle r="17.686" cy="41.549" cx="70.416" fill="#ccc" fill-rule="evenodd" stroke="teal" stroke-width="2" stroke-linecap="round" stroke-linejoin="round"/><circle r="2.738" cy="37.443" cx="63.521" opacity=".7" fill="teal" fill-rule="evenodd"/><path d="M61.214 47.794c2.714 7.6 15.978 6.469 19.57.064" opacity=".7" fill="none" stroke="teal" stroke-width="1.6"/><circle cx="77.813" cy="37.443" r="2.738" opacity=".7" fill="teal" fill-rule="evenodd"/></g></svg>