<svg xmlns="http://www.w3.org/2000/svg" data-name="Layer 1" width="611.723" height="391.954"><path fill="#e6e6e6" d="M.261.347h611.461v391.607H.261z"/><path fill="#fff" d="M17.746 49.464h576.492v319.322H17.746z"/><path fill="#ff7d66" d="M0 0h611.461v25.977H0z"/><circle cx="19.304" cy="13.281" r="4.815" fill="#fff"/><circle cx="37.579" cy="13.281" r="4.815" fill="#fff"/><circle cx="55.855" cy="13.281" r="4.815" fill="#fff"/><path d="M431.117 79.373H243.429a1.666 1.666 0 010-3.304h187.688a1.666 1.666 0 010 3.304zM301.068 97.54H181.736a1.666 1.666 0 010-3.303h119.332a1.666 1.666 0 010 3.303zm130.049.33H311.785a1.666 1.666 0 010-3.303h119.332a1.666 1.666 0 010 3.303zm-129.759 17.838H182.026a1.666 1.666 0 010-3.304h119.332a1.666 1.666 0 010 3.304zm.289 18.167H182.315a1.666 1.666 0 010-3.303h119.332a1.666 1.666 0 010 3.303zm54.163-18.167h-34.178a1.666 1.666 0 010-3.304h34.178a1.666 1.666 0 010 3.304zm0 17.837h-34.178a1.666 1.666 0 010-3.304h34.178a1.666 1.666 0 010 3.304zm57.349 0H378.98a1.666 1.666 0 010-3.304h34.178a1.666 1.666 0 010 3.304zM215.045 79.373h-34.178a1.666 1.666 0 010-3.304h34.178a1.666 1.666 0 010 3.304zm85.588 208.305H181.302a1.666 1.666 0 010-3.303h119.332a1.666 1.666 0 010 3.303zm-.579 36.335H180.722a1.666 1.666 0 010-3.303h119.332a1.666 1.666 0 010 3.303zm.29 18.167H181.012a1.666 1.666 0 010-3.302h119.332a1.666 1.666 0 010 3.303zm50.976-17.836h-34.177a1.666 1.666 0 010-3.304h34.178a1.666 1.666 0 010 3.304zm0 17.836h-34.177a1.666 1.666 0 010-3.302h34.178a1.666 1.666 0 010 3.303zm57.35-17.836h-34.178a1.666 1.666 0 010-3.304h34.177a1.666 1.666 0 010 3.304zm22.591-18.498H243.574a1.666 1.666 0 010-3.303h187.687a1.666 1.666 0 010 3.303zm-216.071 0h-34.178a1.666 1.666 0 010-3.303h34.177a1.666 1.666 0 010 3.303z" fill="#ccc"/><path fill="#e6e6e6" d="M271.815 254.748l10.427-10.427-35.047-35.047 35.336-35.336-10.716-10.717-46.343 45.764zm68.355 0l-10.427-10.427 35.046-35.047-35.336-35.336 10.717-10.717 46.342 45.764z"/><path fill="#ff7d66" d="M271.815 254.748l10.427-10.427-35.047-35.047 35.336-35.336-10.716-10.717-46.343 45.764zm68.355 0l-10.427-10.427 35.046-35.047-35.336-35.336 10.717-10.717 46.342 45.764z"/></svg>