<?xml version="1.0" encoding="UTF-8" standalone="no"?>
<svg
   xmlns:dc="http://purl.org/dc/elements/1.1/"
   xmlns:cc="http://creativecommons.org/ns#"
   xmlns:rdf="http://www.w3.org/1999/02/22-rdf-syntax-ns#"
   xmlns:svg="http://www.w3.org/2000/svg"
   xmlns="http://www.w3.org/2000/svg"
   xmlns:sodipodi="http://sodipodi.sourceforge.net/DTD/sodipodi-0.dtd"
   xmlns:inkscape="http://www.inkscape.org/namespaces/inkscape"
   height="595.22"
   width="2194.3"
   viewBox="0 0 2194.2857 595.21821"
   version="1.1"
   id="svg134"
   sodipodi:docname="web-design.svg"
   inkscape:version="0.92.1 r">
  <metadata
     id="metadata140">
    <rdf:RDF>
      <cc:Work
         rdf:about="">
        <dc:format>image/svg+xml</dc:format>
        <dc:type
           rdf:resource="http://purl.org/dc/dcmitype/StillImage" />
      </cc:Work>
    </rdf:RDF>
  </metadata>
  <defs
     id="defs138" />
  <sodipodi:namedview
     pagecolor="#ffffff"
     bordercolor="#666666"
     borderopacity="1"
     objecttolerance="10"
     gridtolerance="10"
     guidetolerance="10"
     inkscape:pageopacity="0"
     inkscape:pageshadow="2"
     inkscape:window-width="640"
     inkscape:window-height="480"
     id="namedview136"
     showgrid="false"
     inkscape:zoom="0.33997174"
     inkscape:cx="482.39304"
     inkscape:cy="291.72714"
     inkscape:current-layer="svg134" />
  <g
     id="g4683">
    <g
       id="g66"
       transform="translate(1428.6 28.713)">
      <path
         id="path2"
         fill="#ccc"
         d="M-700.34 441.7c0 9.6-7.543 17.371-17.371 17.371h-663.09c-9.6 0-17.371-7.543-17.371-17.371V-11.33c0-9.6 7.543-17.371 17.371-17.371h662.63c9.6 0 17.371 7.543 17.371 17.371V441.7h.457z" />
      <path
         id="path4"
         d="M-700.34-11.324v397.49h-698.06v-397.49c0-9.6 7.543-17.371 17.371-17.371h662.63c10.057-.457 18.057 7.771 18.057 17.371z"
         fill="#474e5d" />
      <path
         id="path6"
         d="M-1364.6 4.676h628.8v346.29h-628.8z"
         fill="#00989b" />
      <path
         id="path8"
         d="M-959.09 449.25c0-36.8-67.886-12.114-90.286-2.743-22.629-9.371-90.286-33.829-90.286 2.743 0 63.314-39.086 117.03-39.086 117.03h258.749c-.229 0-39.086-53.714-39.086-117.03z"
         fill="#ccc" />
      <path
         id="path10"
         d="M-1188.6 551.88h277.94v14.629h-277.94z"
         fill="#a1a1a1" />
      <path
         id="path12"
         fill="#a1a1a1"
         d="M-954.51 488.33h-189.71c2.057-9.371 3.429-18.971 4.571-29.486h181.03c.229 10.514 2.058 20.343 4.115 29.486z"
         opacity=".3" />
      <path
         id="path14"
         d="M-1341.015 21.593h125.484v36.343h-125.484z"
         fill="#e6e6e6" />
      <path
         id="path16"
         d="M-1203.416 21.593h445.254v36.343h-445.254z"
         fill="#4d4d4d" />
      <path
         id="path18"
         fill="#ececec"
         d="M-1341.015 257.478h138.742v77.256h-138.742zm147.885 0h138.741v77.256h-138.742zm148.57 0h138.742v77.256h-138.742zm148.113 0h138.742v77.256h-138.742z" />
      <path
         id="path20"
         d="M-1341.015 118.964h582.396v122.514h-582.396z"
         fill="#636363" />
      <path
         id="path22"
         d="M-1341.015 69.822h582.396v32.685h-582.396z"
         fill="#a6a6a6" />
      <path
         id="path24"
         fill="#474e5d"
         d="M-548.8 111.19c10.743 0 19.657 8.914 19.657 19.657v416c0 10.743-8.914 19.657-19.657 19.657h-293.49c-10.743 0-19.657-8.914-19.657-19.657v-416c0-10.743 8.914-19.657 19.657-19.657h293.49z" />
      <path
         id="path26"
         d="M-833.37 151.65h275.89v375.77h-275.89z"
         fill="#00989b" />
      <path
         id="path28"
         fill="#41484d"
         d="M-695.54 538.39c5.257 0 9.371 4.114 9.371 9.371s-4.114 9.372-9.371 9.372-9.371-4.115-9.371-9.372c0-5.028 4.571-9.371 9.371-9.371z"
         opacity=".35" />
      <path
         id="path30"
         d="M-713.6 134.28h36.8"
         stroke-width="4.571"
         stroke-miterlimit="10"
         stroke-linecap="round"
         stroke="#4d4d4d"
         fill="none"
         opacity=".35" />
      <path
         id="path32"
         d="M-819.66 195.3h248.69v14.629h-248.69z"
         fill="#a6a6a6" />
      <path
         id="path34"
         fill="#e9f7fe"
         d="M-819.66 344.56h248.69v21.486h-248.69zm0 37.49h248.69v21.486h-248.69zm0 37.03h248.69v21.486h-248.69zm248.697 37.71v21.03h-248.684v-21.03h248.684m-248.697 37.03h248.69v21.486h-248.69z" />
      <path
         id="path36"
         d="M-820.11 219.53h248.69v55.771h-248.69z"
         fill="#636363" />
      <path
         id="path38"
         d="M-819.647 164.221h119.542v20.571h-119.542z"
         fill="#e6e6e6" />
      <path
         id="path40"
         d="M-690.734 164.221h119.542v20.571h-119.542z"
         fill="#4d4d4d" />
      <path
         id="path42"
         fill="#ececec"
         d="M-820.104 287.192h52.8v43.657h-52.8zm61.942 0h57.828v43.657h-57.828zm67.2 0h57.828v43.657h-57.828zm66.742 0h52.8v43.657h-52.8z" />
      <path
         id="path44"
         fill="#474e5d"
         d="M-1284.102 534.276v20.571c0 6.629-5.257 11.657-11.657 11.657H-1416.9c-6.628 0-11.657-5.257-11.657-11.657v-236.57c0-6.628 5.257-11.657 11.657-11.657h120.457c6.628 0 11.657 5.257 11.657 11.657v215.999" />
      <path
         id="path46"
         d="M-1416.9 351.65h120.46v175.09h-120.46z"
         fill="#00989b" />
      <path
         id="path48"
         d="M-1347.7 547.76c0 5.257-4.114 9.371-9.371 9.371-5.258 0-9.372-4.114-9.372-9.371s4.114-9.371 9.372-9.371c5.257.457 9.371 4.571 9.371 9.371z"
         fill="#41484d"
         opacity=".35" />
      <path
         id="path50"
         d="M-1374.9 332.22h36.6"
         stroke-width="4.571"
         stroke-miterlimit="10"
         stroke-linecap="round"
         stroke="#4d4d4d"
         fill="none"
         opacity=".35" />
      <path
         id="path52"
         d="M-1407.1 380.9h101.94v11.2h-101.94z"
         fill="#b3b3b3" />
      <path
         id="path54"
         d="M-1407.5 398.5h101.94v23.086h-101.94z"
         fill="#636363" />
      <path
         id="path56"
         d="M-1407.072 361.02h46.628v13.714h-46.628z"
         fill="#e6e6e6" />
      <path
         id="path58"
         d="M-1351.987 361.02h46.628v13.714h-46.628z"
         fill="#4d4d4d" />
      <path
         id="path60"
         fill="#ececec"
         d="M-1407.5 428.45h18.743v20.114h-18.743zm26 0h21.257v20.114h-21.257zm28.8 0h21.257v20.114h-21.257zm28.8 0h18.743v20.114h-18.743z" />
      <path
         id="path62"
         fill="#e9f7fe"
         d="M-1407.1 456.33h101.26v9.6h-101.26zm0 17.83h101.26v9.6h-101.26zm0 17.83h101.26v9.6h-101.26zm101.741 18.286v9.6h-101.713v-9.6h101.713" />
      <circle
         id="circle64"
         fill="#fff"
         r="12.8"
         cx="-1049.8"
         cy="422.05" />
    </g>
    <g
       id="g128"
       transform="translate(1428.6 28.713)">
      <path
         id="path68"
         fill="#ccc"
         d="M594.058 441.705c0 9.6-7.543 17.371-17.371 17.371h-663.31c-9.6 0-17.372-7.542-17.372-17.37V-11.322c0-9.6 7.543-17.371 17.372-17.371H576.23c9.6 0 17.371 7.543 17.371 17.371v453.026h.457z" />
      <path
         id="path70"
         d="M594.29-11.324v397.49h-698.06v-397.49c0-9.6 7.543-17.371 17.371-17.371h662.86c9.829-.457 17.829 7.771 17.829 17.371z"
         fill="#474e5d" />
      <path
         id="path72"
         d="M-69.714 4.676h628.8v346.29h-628.8z"
         fill="#00989b" />
      <path
         id="path74"
         d="M335.31 449.25c0-36.8-67.886-12.114-90.286-2.743-22.629-9.371-90.286-33.829-90.286 2.743 0 63.314-39.086 117.03-39.086 117.03h259.209c-.457 0-39.543-53.714-39.543-117.03z"
         fill="#ccc" />
      <path
         id="path76"
         d="M106.06 551.88H384v14.629H106.06z"
         fill="#a1a1a1" />
      <path
         id="path78"
         fill="#a1a1a1"
         d="M340.11 488.33H150.4c2.057-9.371 3.429-18.971 4.571-29.486h181.03c.458 10.514 1.829 20.343 4.115 29.486z"
         opacity=".3" />
      <path
         id="path80"
         d="M-46.4 21.591H79.09v36.343H-46.4z"
         fill="#e6e6e6" />
      <path
         id="path82"
         d="M88.686 21.591h447.77v36.343H88.686z"
         fill="#4d4d4d" />
      <path
         id="path84"
         fill="#ececec"
         d="M-46.395 257.478H92.347v77.256H-46.395zm148.113 0H240.46v77.256H101.718zm148.342 0h138.742v77.256H250.06zm148.342 0h138.742v77.256H398.402z" />
      <path
         id="path86"
         d="M-46.4 118.96H536v122.51H-46.4z"
         fill="#636363" />
      <path
         id="path88"
         d="M-46.4 69.819H536v32.686H-46.4z"
         fill="#a6a6a6" />
      <path
         id="path90"
         fill="#474e5d"
         d="M746.057 111.193c10.743 0 19.657 8.914 19.657 19.657v415.997c0 10.743-8.914 19.657-19.657 19.657H452.345c-10.743 0-19.657-8.914-19.657-19.657V130.85c0-10.743 8.914-19.657 19.657-19.657h293.712z" />
      <path
         id="path92"
         d="M461.03 151.65h275.89v375.77H461.03z"
         fill="#00989b" />
      <path
         id="path94"
         d="M599.09 538.39c5.257 0 9.371 4.114 9.371 9.371s-4.114 9.372-9.371 9.372-9.371-4.115-9.371-9.372c.228-5.028 4.571-9.371 9.371-9.371z"
         fill="#41484d"
         opacity=".35" />
      <path
         id="path96"
         d="M580.8 134.28h36.34"
         stroke-width="4.571"
         stroke-miterlimit="10"
         stroke-linecap="round"
         stroke="#4d4d4d"
         fill="none"
         opacity=".35" />
      <path
         id="path98"
         d="M475.43 240.106h248.913v19.657H475.43z"
         fill="#a6a6a6" />
      <path
         id="path100"
         d="M474.745 274.163h248.912v78.857H474.745z"
         fill="#636363" />
      <path
         id="path102"
         d="M475.43 163.535h119.542v62.629H475.43z"
         fill="#e6e6e6" />
      <path
         id="path104"
         d="M604.344 163.535h119.542v62.629H604.344z"
         fill="#4d4d4d" />
      <path
         id="path106"
         fill="#ececec"
         d="M474.745 370.163H593.6v63.542H474.745zm130.055 0h118.857v63.542H604.801zm-130.055 79.313H593.6v63.543H474.745zm130.055 0h118.857v63.543H604.801z" />
      <path
         id="path108"
         fill="#474e5d"
         d="M10.062 534.276v20.571c0 6.629-5.257 11.657-11.657 11.657h-120.457c-6.628 0-11.657-5.257-11.657-11.657v-236.57c0-6.628 5.257-11.657 11.657-11.657H-1.595c6.628 0 11.657 5.257 11.657 11.657v215.999" />
      <path
         id="path110"
         d="M-122.06 351.19H-1.6v175.09h-120.46z"
         fill="#00989b" />
      <path
         id="path112"
         fill="#41484d"
         d="M-52.8 547.76c0 5.257-4.114 9.371-9.371 9.371s-9.372-4.114-9.372-9.371 4.115-9.371 9.372-9.371c5.257.457 9.371 4.571 9.371 9.371z"
         opacity=".35" />
      <path
         id="path114"
         d="M-80.229 331.76h36.8"
         stroke-width="4.571"
         stroke-miterlimit="10"
         stroke-linecap="round"
         stroke="#4d4d4d"
         fill="none"
         opacity=".35" />
      <path
         id="path116"
         d="M-112.46 426.16H-11.2v18.743h-101.26z"
         fill="#a6a6a6" />
      <path
         id="path118"
         d="M-112.46 453.13h101.94v39.771h-101.94z"
         fill="#636363" />
      <path
         id="path120"
         d="M-112.452 358.506h101.257v31.77h-101.257z"
         fill="#e6e6e6" />
      <path
         id="path122"
         d="M-112.452 400.791H-10.51v17.143h-101.942z"
         fill="#4d4d4d" />
      <path
         id="path124"
         d="M-112.46 503.42h101.94v12.571h-101.94z"
         fill="#ececec" />
      <circle
         id="circle126"
         fill="#fff"
         r="12.8"
         cx="245.03"
         cy="422.05" />
    </g>
    <path
       id="path130"
       d="M1139.235 302.648H1023.58"
       fill="none"
       stroke-miterlimit="10"
       stroke-linecap="square"
       stroke="#d1d3d4"
       stroke-width="16" />
    <path
       id="path132"
       d="M1131.235 274.076l49.6 28.572-49.6 28.114z"
       fill="#d1d3d4" />
  </g>
</svg>
